<svg width="51" height="51" viewBox="0 0 51 51" fill="none" xmlns="http://www.w3.org/2000/svg">
<rect x="1.15712" y="1.15718" width="33.6857" height="33.6857" stroke="#09CD92" stroke-width="0.6"/>
<rect x="16.1571" y="16.1572" width="33.6857" height="33.6857" stroke="#09CD92" stroke-width="0.6"/>
<path d="M6.21429 6.21423H40.7143C42.3712 6.21423 43.7143 7.55738 43.7143 9.21423V43.7142H9.21429C7.55744 43.7142 6.21429 42.3711 6.21429 40.7142V6.21423Z" fill="#2D2D2D"/>
<path d="M14.1823 30.8228V28.7528C15.1543 28.7528 15.8563 28.5728 16.2883 28.2128C16.7323 27.8408 16.9543 27.1868 16.9543 26.2508V18.4028H19.1143V26.2508C19.1143 27.1868 18.9703 27.9968 18.6823 28.6808C18.3943 29.3648 17.8903 29.8928 17.1703 30.2648C16.4623 30.6368 15.4663 30.8228 14.1823 30.8228ZM24.5319 18.4028L27.9519 26.7728L31.3539 18.4028H33.7119V30.6428H31.6419V25.9628L31.9119 21.6788L28.8699 29.2028H26.9439L23.9739 21.6608L24.2439 25.9628V30.6428H22.1739V18.4028H24.5319Z" fill="#09CD92"/>
</svg>
