<svg width="257" height="300" viewBox="0 0 257 300" fill="none" xmlns="http://www.w3.org/2000/svg">
<rect width="257" height="300" rx="2" fill="#353535"/>
<path d="M44.0125 46.5008V46.5C44.0125 45.6645 44.6776 45 45.5 45H52.5858L54.7929 47.2071L55.0858 47.5H55.5H65.5C66.329 47.5 67 48.171 67 49V61.5C67 62.329 66.329 63 65.5 63H45.5C44.6712 63 44.0002 62.3292 44 61.5004C44 61.5002 44 61.5001 44 61.5L44.0125 46.5008Z" stroke="#09CD92" stroke-width="2"/>
<path d="M207.258 53.4083C207.179 53.3325 207.086 53.273 206.983 53.2333C206.78 53.15 206.553 53.15 206.35 53.2333C206.248 53.273 206.154 53.3325 206.075 53.4083L204.408 55.075C204.251 55.2319 204.163 55.4448 204.163 55.6667C204.163 55.8886 204.251 56.1014 204.408 56.2583C204.565 56.4153 204.778 56.5034 205 56.5034C205.222 56.5034 205.435 56.4153 205.592 56.2583L205.833 56.0083V58.1667C205.833 58.3877 205.921 58.5996 206.077 58.7559C206.234 58.9122 206.446 59 206.667 59C206.888 59 207.1 58.9122 207.256 58.7559C207.412 58.5996 207.5 58.3877 207.5 58.1667V56.0083L207.742 56.2583C207.819 56.3364 207.911 56.3984 208.013 56.4407C208.114 56.4831 208.223 56.5048 208.333 56.5048C208.443 56.5048 208.552 56.4831 208.654 56.4407C208.755 56.3984 208.848 56.3364 208.925 56.2583C209.003 56.1809 209.065 56.0887 209.107 55.9872C209.15 55.8856 209.171 55.7767 209.171 55.6667C209.171 55.5567 209.15 55.4477 209.107 55.3462C209.065 55.2446 209.003 55.1525 208.925 55.075L207.258 53.4083ZM213.333 51.45C213.325 51.3735 213.308 51.298 213.283 51.225V51.15C213.243 51.0643 213.19 50.9856 213.125 50.9167L208.125 45.9167C208.056 45.8519 207.977 45.7984 207.892 45.7583H207.808C207.727 45.715 207.64 45.6841 207.55 45.6667H202.5C201.837 45.6667 201.201 45.9301 200.732 46.3989C200.263 46.8677 200 47.5036 200 48.1667V59.8333C200 60.4964 200.263 61.1323 200.732 61.6011C201.201 62.0699 201.837 62.3333 202.5 62.3333H210.833C211.496 62.3333 212.132 62.0699 212.601 61.6011C213.07 61.1323 213.333 60.4964 213.333 59.8333V51.5C213.333 51.5 213.333 51.5 213.333 51.45ZM208.333 48.5083L210.492 50.6667H209.167C208.946 50.6667 208.734 50.5789 208.577 50.4226C208.421 50.2663 208.333 50.0544 208.333 49.8333V48.5083ZM211.667 59.8333C211.667 60.0544 211.579 60.2663 211.423 60.4226C211.266 60.5789 211.054 60.6667 210.833 60.6667H202.5C202.279 60.6667 202.067 60.5789 201.911 60.4226C201.754 60.2663 201.667 60.0544 201.667 59.8333V48.1667C201.667 47.9457 201.754 47.7337 201.911 47.5774C202.067 47.4211 202.279 47.3333 202.5 47.3333H206.667V49.8333C206.667 50.4964 206.93 51.1323 207.399 51.6011C207.868 52.0699 208.504 52.3333 209.167 52.3333H211.667V59.8333Z" fill="#09CD92" fill-opacity="0.6"/>
<path d="M42.504 109V98.12H46.088C47.2293 98.12 48.0827 98.408 48.648 98.984C49.224 99.56 49.512 100.328 49.512 101.288V102.136C49.512 103.096 49.224 103.869 48.648 104.456C48.0827 105.032 47.2293 105.32 46.088 105.32H44.424V109H42.504ZM46.088 99.96H44.424V103.48H46.088C46.5573 103.48 46.9147 103.363 47.16 103.128C47.416 102.893 47.544 102.563 47.544 102.136V101.288C47.544 100.872 47.416 100.547 47.16 100.312C46.9147 100.077 46.5573 99.96 46.088 99.96ZM55.7113 102.568C55.2099 102.568 54.7299 102.648 54.2713 102.808C53.8233 102.957 53.3913 103.203 52.9753 103.544V109H51.1353V100.888H52.8793V102.136C53.4233 101.624 53.9086 101.261 54.3353 101.048C54.7619 100.835 55.2206 100.728 55.7113 100.728V102.568ZM63.8028 104.456V105.416C63.8028 106.547 63.4934 107.453 62.8748 108.136C62.2561 108.819 61.3814 109.16 60.2508 109.16C59.1201 109.16 58.2454 108.819 57.6268 108.136C57.0081 107.453 56.6988 106.547 56.6988 105.416V104.456C56.6988 103.325 57.0028 102.424 57.6108 101.752C58.2294 101.069 59.1094 100.728 60.2508 100.728C61.3921 100.728 62.2668 101.069 62.8748 101.752C63.4934 102.424 63.8028 103.325 63.8028 104.456ZM61.9148 104.456C61.9148 103.805 61.7708 103.299 61.4828 102.936C61.1948 102.563 60.7841 102.376 60.2508 102.376C59.7174 102.376 59.3068 102.563 59.0188 102.936C58.7308 103.299 58.5868 103.805 58.5868 104.456V105.416C58.5868 106.067 58.7308 106.579 59.0188 106.952C59.3068 107.325 59.7174 107.512 60.2508 107.512C60.7841 107.512 61.1948 107.325 61.4828 106.952C61.7708 106.579 61.9148 106.067 61.9148 105.416V104.456ZM67.5939 99.352H65.6579V97.448H67.5939V99.352ZM64.0419 112.568V110.84C64.5752 110.84 64.9859 110.712 65.2739 110.456C65.5619 110.2 65.7059 109.736 65.7059 109.064V100.888H67.5459V109.064C67.5459 109.672 67.4445 110.243 67.2419 110.776C67.0499 111.309 66.6979 111.741 66.1859 112.072C65.6845 112.403 64.9699 112.568 64.0419 112.568ZM76.0809 108.536C75.5262 108.76 75.0035 108.92 74.5129 109.016C74.0222 109.112 73.5582 109.16 73.1209 109.16C71.9155 109.16 71.0035 108.819 70.3849 108.136C69.7662 107.453 69.4569 106.547 69.4569 105.416V104.456C69.4569 103.699 69.5955 103.043 69.8729 102.488C70.1502 101.933 70.5449 101.501 71.0569 101.192C71.5689 100.883 72.1715 100.728 72.8649 100.728C73.4302 100.728 73.9582 100.845 74.4489 101.08C74.9502 101.304 75.3555 101.661 75.6649 102.152C75.9849 102.632 76.1449 103.251 76.1449 104.008C76.1449 104.232 76.1289 104.472 76.0969 104.728C76.0649 104.973 76.0115 105.235 75.9369 105.512H71.2329C71.2542 106.173 71.4195 106.669 71.7289 107C72.0382 107.331 72.5342 107.496 73.2169 107.496C73.5795 107.496 73.9529 107.453 74.3369 107.368C74.7315 107.283 75.1369 107.155 75.5529 106.984L76.0809 108.536ZM72.8649 102.28C72.3742 102.28 71.9902 102.44 71.7129 102.76C71.4462 103.069 71.2915 103.517 71.2489 104.104H74.3209C74.3315 104.051 74.3369 104.003 74.3369 103.96C74.3369 103.907 74.3369 103.859 74.3369 103.816C74.3369 103.304 74.1929 102.92 73.9049 102.664C73.6169 102.408 73.2702 102.28 72.8649 102.28ZM79.5126 104.472V105.416C79.5126 106.099 79.6353 106.611 79.8806 106.952C80.126 107.293 80.5206 107.464 81.0646 107.464C81.3313 107.464 81.63 107.432 81.9606 107.368C82.302 107.293 82.67 107.181 83.0646 107.032L83.5926 108.584C83.1126 108.776 82.6593 108.92 82.2326 109.016C81.806 109.112 81.3846 109.16 80.9686 109.16C79.902 109.16 79.086 108.819 78.5206 108.136C77.9553 107.453 77.6726 106.547 77.6726 105.416V104.472C77.6726 103.331 77.9553 102.424 78.5206 101.752C79.086 101.069 79.902 100.728 80.9686 100.728C81.374 100.728 81.7846 100.776 82.2006 100.872C82.6166 100.968 83.054 101.107 83.5126 101.288L82.9846 102.872C82.2166 102.573 81.5766 102.424 81.0646 102.424C80.5206 102.424 80.126 102.595 79.8806 102.936C79.6353 103.267 79.5126 103.779 79.5126 104.472ZM89.9965 108.728C89.7192 108.856 89.3992 108.957 89.0365 109.032C88.6738 109.117 88.3058 109.16 87.9325 109.16C87.3138 109.16 86.8178 109.032 86.4445 108.776C86.0712 108.52 85.7992 108.163 85.6285 107.704C85.4685 107.245 85.3885 106.723 85.3885 106.136V102.488H84.0765V100.888H85.3885V98.776H87.2285V100.888H89.7565V102.488H87.2285V106.136C87.2285 106.627 87.3192 106.968 87.5005 107.16C87.6925 107.341 87.9645 107.432 88.3165 107.432C88.4872 107.432 88.6685 107.416 88.8605 107.384C89.0632 107.341 89.2872 107.272 89.5325 107.176L89.9965 108.728ZM93.303 99.96V98.12H101.303V99.96H98.263V109H96.343V99.96H93.303ZM104.509 99.352H102.573V97.448H104.509V99.352ZM104.461 109H102.621V100.888H104.461V109ZM111.716 108.728C111.439 108.856 111.119 108.957 110.756 109.032C110.393 109.117 110.025 109.16 109.652 109.16C109.033 109.16 108.537 109.032 108.164 108.776C107.791 108.52 107.519 108.163 107.348 107.704C107.188 107.245 107.108 106.723 107.108 106.136V102.488H105.796V100.888H107.108V98.776H108.948V100.888H111.476V102.488H108.948V106.136C108.948 106.627 109.039 106.968 109.22 107.16C109.412 107.341 109.684 107.432 110.036 107.432C110.207 107.432 110.388 107.416 110.58 107.384C110.783 107.341 111.007 107.272 111.252 107.176L111.716 108.728ZM112.987 106.712V97.16H114.827V106.712C114.827 106.872 114.865 107.027 114.939 107.176C115.025 107.315 115.185 107.384 115.419 107.384H115.675V109.08H115.227C114.619 109.08 114.155 108.963 113.835 108.728C113.515 108.493 113.291 108.195 113.163 107.832C113.046 107.469 112.987 107.096 112.987 106.712ZM123.457 108.536C122.902 108.76 122.38 108.92 121.889 109.016C121.398 109.112 120.934 109.16 120.497 109.16C119.292 109.16 118.38 108.819 117.761 108.136C117.142 107.453 116.833 106.547 116.833 105.416V104.456C116.833 103.699 116.972 103.043 117.249 102.488C117.526 101.933 117.921 101.501 118.433 101.192C118.945 100.883 119.548 100.728 120.241 100.728C120.806 100.728 121.334 100.845 121.825 101.08C122.326 101.304 122.732 101.661 123.041 102.152C123.361 102.632 123.521 103.251 123.521 104.008C123.521 104.232 123.505 104.472 123.473 104.728C123.441 104.973 123.388 105.235 123.313 105.512H118.609C118.63 106.173 118.796 106.669 119.105 107C119.414 107.331 119.91 107.496 120.593 107.496C120.956 107.496 121.329 107.453 121.713 107.368C122.108 107.283 122.513 107.155 122.929 106.984L123.457 108.536ZM120.241 102.28C119.75 102.28 119.366 102.44 119.089 102.76C118.822 103.069 118.668 103.517 118.625 104.104H121.697C121.708 104.051 121.713 104.003 121.713 103.96C121.713 103.907 121.713 103.859 121.713 103.816C121.713 103.304 121.569 102.92 121.281 102.664C120.993 102.408 120.646 102.28 120.241 102.28ZM128.06 104.76V103.16H132.924V104.76H128.06ZM143.908 109L143.236 106.872H139.508L138.836 109H136.932L140.564 98.12H142.26L145.908 109H143.908ZM140.548 103.544L140.052 105.112H142.676L142.18 103.544L141.38 100.792L140.548 103.544ZM157.109 100.888L155.029 109H153.029L151.685 102.904L150.261 109H148.261L146.181 100.888H148.069L148.853 104.104L149.397 107.032L150.773 100.888H152.629L154.053 107.096L154.565 104.12L155.333 100.888H157.109ZM164.653 108.536C164.099 108.76 163.576 108.92 163.085 109.016C162.595 109.112 162.131 109.16 161.693 109.16C160.488 109.16 159.576 108.819 158.957 108.136C158.339 107.453 158.029 106.547 158.029 105.416V104.456C158.029 103.699 158.168 103.043 158.445 102.488C158.723 101.933 159.117 101.501 159.629 101.192C160.141 100.883 160.744 100.728 161.437 100.728C162.003 100.728 162.531 100.845 163.021 101.08C163.523 101.304 163.928 101.661 164.237 102.152C164.557 102.632 164.717 103.251 164.717 104.008C164.717 104.232 164.701 104.472 164.669 104.728C164.637 104.973 164.584 105.235 164.509 105.512H159.805C159.827 106.173 159.992 106.669 160.301 107C160.611 107.331 161.107 107.496 161.789 107.496C162.152 107.496 162.525 107.453 162.909 107.368C163.304 107.283 163.709 107.155 164.125 106.984L164.653 108.536ZM161.437 102.28C160.947 102.28 160.563 102.44 160.285 102.76C160.019 103.069 159.864 103.517 159.821 104.104H162.893C162.904 104.051 162.909 104.003 162.909 103.96C162.909 103.907 162.909 103.859 162.909 103.816C162.909 103.304 162.765 102.92 162.477 102.664C162.189 102.408 161.843 102.28 161.437 102.28ZM168.949 107.56C169.344 107.56 169.669 107.496 169.925 107.368C170.181 107.229 170.309 107.027 170.309 106.76C170.309 106.525 170.224 106.344 170.053 106.216C169.893 106.077 169.6 105.955 169.173 105.848L168.261 105.608C167.557 105.427 167.034 105.123 166.693 104.696C166.362 104.269 166.197 103.763 166.197 103.176C166.197 102.483 166.437 101.901 166.917 101.432C167.397 100.963 168.138 100.728 169.141 100.728C169.546 100.728 169.973 100.776 170.421 100.872C170.869 100.968 171.338 101.123 171.829 101.336L171.301 102.904C170.853 102.691 170.448 102.541 170.085 102.456C169.722 102.371 169.402 102.328 169.125 102.328C168.368 102.328 167.989 102.584 167.989 103.096C167.989 103.299 168.053 103.459 168.181 103.576C168.32 103.693 168.57 103.8 168.933 103.896L169.845 104.136C170.624 104.339 171.189 104.648 171.541 105.064C171.904 105.48 172.085 106.003 172.085 106.632C172.085 107.379 171.829 107.987 171.317 108.456C170.816 108.925 170.021 109.16 168.933 109.16C168.005 109.16 167.029 108.947 166.005 108.52L166.501 107C167.002 107.203 167.456 107.347 167.861 107.432C168.266 107.517 168.629 107.56 168.949 107.56ZM180.454 104.456V105.416C180.454 106.547 180.145 107.453 179.526 108.136C178.907 108.819 178.033 109.16 176.902 109.16C175.771 109.16 174.897 108.819 174.278 108.136C173.659 107.453 173.35 106.547 173.35 105.416V104.456C173.35 103.325 173.654 102.424 174.262 101.752C174.881 101.069 175.761 100.728 176.902 100.728C178.043 100.728 178.918 101.069 179.526 101.752C180.145 102.424 180.454 103.325 180.454 104.456ZM178.566 104.456C178.566 103.805 178.422 103.299 178.134 102.936C177.846 102.563 177.435 102.376 176.902 102.376C176.369 102.376 175.958 102.563 175.67 102.936C175.382 103.299 175.238 103.805 175.238 104.456V105.416C175.238 106.067 175.382 106.579 175.67 106.952C175.958 107.325 176.369 107.512 176.902 107.512C177.435 107.512 177.846 107.325 178.134 106.952C178.422 106.579 178.566 106.067 178.566 105.416V104.456ZM184.197 103.384V109H182.357V100.888H184.101V101.96C184.602 101.523 185.066 101.208 185.493 101.016C185.92 100.824 186.357 100.728 186.805 100.728C187.797 100.728 188.474 101.165 188.837 102.04C189.37 101.571 189.866 101.235 190.325 101.032C190.784 100.829 191.248 100.728 191.717 100.728C192.464 100.728 193.034 100.979 193.429 101.48C193.824 101.971 194.021 102.664 194.021 103.56V109H192.181V103.784C192.181 102.888 191.84 102.44 191.157 102.44C190.89 102.44 190.597 102.504 190.277 102.632C189.957 102.76 189.568 103.011 189.109 103.384V109H187.269V103.784C187.269 102.888 186.928 102.44 186.245 102.44C185.978 102.44 185.685 102.504 185.365 102.632C185.045 102.76 184.656 103.011 184.197 103.384ZM202.451 108.536C201.896 108.76 201.374 108.92 200.883 109.016C200.392 109.112 199.928 109.16 199.491 109.16C198.286 109.16 197.374 108.819 196.755 108.136C196.136 107.453 195.827 106.547 195.827 105.416V104.456C195.827 103.699 195.966 103.043 196.243 102.488C196.52 101.933 196.915 101.501 197.427 101.192C197.939 100.883 198.542 100.728 199.235 100.728C199.8 100.728 200.328 100.845 200.819 101.08C201.32 101.304 201.726 101.661 202.035 102.152C202.355 102.632 202.515 103.251 202.515 104.008C202.515 104.232 202.499 104.472 202.467 104.728C202.435 104.973 202.382 105.235 202.307 105.512H197.603C197.624 106.173 197.79 106.669 198.099 107C198.408 107.331 198.904 107.496 199.587 107.496C199.95 107.496 200.323 107.453 200.707 107.368C201.102 107.283 201.507 107.155 201.923 106.984L202.451 108.536ZM199.235 102.28C198.744 102.28 198.36 102.44 198.083 102.76C197.816 103.069 197.662 103.517 197.619 104.104H200.691C200.702 104.051 200.707 104.003 200.707 103.96C200.707 103.907 200.707 103.859 200.707 103.816C200.707 103.304 200.563 102.92 200.275 102.664C199.987 102.408 199.64 102.28 199.235 102.28ZM41.208 119.96V118.12H49.208V119.96H46.168V129H44.248V119.96H41.208ZM56.2128 124.456V125.416C56.2128 126.547 55.9034 127.453 55.2848 128.136C54.6661 128.819 53.7914 129.16 52.6608 129.16C51.5301 129.16 50.6554 128.819 50.0368 128.136C49.4181 127.453 49.1088 126.547 49.1088 125.416V124.456C49.1088 123.325 49.4128 122.424 50.0208 121.752C50.6394 121.069 51.5194 120.728 52.6608 120.728C53.8021 120.728 54.6768 121.069 55.2848 121.752C55.9034 122.424 56.2128 123.325 56.2128 124.456ZM54.3248 124.456C54.3248 123.805 54.1808 123.299 53.8928 122.936C53.6048 122.563 53.1941 122.376 52.6608 122.376C52.1274 122.376 51.7168 122.563 51.4288 122.936C51.1408 123.299 50.9968 123.805 50.9968 124.456V125.416C50.9968 126.067 51.1408 126.579 51.4288 126.952C51.7168 127.325 52.1274 127.512 52.6608 127.512C53.1941 127.512 53.6048 127.325 53.8928 126.952C54.1808 126.579 54.3248 126.067 54.3248 125.416V124.456ZM62.8679 129V127.896C62.3772 128.387 61.9505 128.723 61.5879 128.904C61.2359 129.075 60.8679 129.16 60.4839 129.16C59.6092 129.16 58.9265 128.829 58.4359 128.168C57.9559 127.507 57.7159 126.579 57.7159 125.384V124.52C57.7159 123.357 58.0092 122.435 58.5959 121.752C59.1825 121.069 60.0305 120.728 61.1399 120.728C61.4172 120.728 61.6892 120.755 61.9559 120.808C62.2332 120.861 62.5052 120.936 62.7719 121.032V117.16H64.6119V129H62.8679ZM59.6039 125.384C59.6039 126.099 59.7212 126.621 59.9559 126.952C60.2012 127.283 60.5425 127.448 60.9799 127.448C61.2252 127.448 61.4865 127.379 61.7639 127.24C62.0412 127.091 62.3772 126.813 62.7719 126.408V122.696C62.2492 122.483 61.7692 122.376 61.3319 122.376C60.7132 122.376 60.2705 122.568 60.0039 122.952C59.7372 123.336 59.6039 123.859 59.6039 124.52V125.384ZM73.6271 124.456V125.416C73.6271 126.547 73.3178 127.453 72.6991 128.136C72.0805 128.819 71.2058 129.16 70.0751 129.16C68.9445 129.16 68.0698 128.819 67.4511 128.136C66.8325 127.453 66.5231 126.547 66.5231 125.416V124.456C66.5231 123.325 66.8271 122.424 67.4351 121.752C68.0538 121.069 68.9338 120.728 70.0751 120.728C71.2165 120.728 72.0911 121.069 72.6991 121.752C73.3178 122.424 73.6271 123.325 73.6271 124.456ZM71.7391 124.456C71.7391 123.805 71.5951 123.299 71.3071 122.936C71.0191 122.563 70.6085 122.376 70.0751 122.376C69.5418 122.376 69.1311 122.563 68.8431 122.936C68.5551 123.299 68.4111 123.805 68.4111 124.456V125.416C68.4111 126.067 68.5551 126.579 68.8431 126.952C69.1311 127.325 69.5418 127.512 70.0751 127.512C70.6085 127.512 71.0191 127.325 71.3071 126.952C71.5951 126.579 71.7391 126.067 71.7391 125.416V124.456ZM77.8023 127.56C78.1969 127.56 78.5223 127.496 78.7783 127.368C79.0343 127.229 79.1623 127.027 79.1623 126.76C79.1623 126.525 79.0769 126.344 78.9063 126.216C78.7463 126.077 78.4529 125.955 78.0263 125.848L77.1143 125.608C76.4103 125.427 75.8876 125.123 75.5463 124.696C75.2156 124.269 75.0503 123.763 75.0503 123.176C75.0503 122.483 75.2903 121.901 75.7703 121.432C76.2503 120.963 76.9916 120.728 77.9943 120.728C78.3996 120.728 78.8263 120.776 79.2743 120.872C79.7223 120.968 80.1916 121.123 80.6823 121.336L80.1543 122.904C79.7063 122.691 79.3009 122.541 78.9383 122.456C78.5756 122.371 78.2556 122.328 77.9783 122.328C77.2209 122.328 76.8423 122.584 76.8423 123.096C76.8423 123.299 76.9063 123.459 77.0343 123.576C77.1729 123.693 77.4236 123.8 77.7863 123.896L78.6983 124.136C79.4769 124.339 80.0423 124.648 80.3943 125.064C80.7569 125.48 80.9383 126.003 80.9383 126.632C80.9383 127.379 80.6823 127.987 80.1703 128.456C79.6689 128.925 78.8743 129.16 77.7863 129.16C76.8583 129.16 75.8823 128.947 74.8583 128.52L75.3543 127C75.8556 127.203 76.3089 127.347 76.7143 127.432C77.1196 127.517 77.4823 127.56 77.8023 127.56ZM91.7423 129L91.0703 126.872H87.3423L86.6703 129H84.7663L88.3983 118.12H90.0943L93.7423 129H91.7423ZM88.3823 123.544L87.8863 125.112H90.5103L90.0143 123.544L89.2143 120.792L88.3823 123.544ZM98.6316 129.16C98.365 129.16 98.093 129.133 97.8156 129.08C97.549 129.027 97.277 128.952 96.9996 128.856V132.408H95.1596V120.888H96.9036V121.992C97.405 121.491 97.8316 121.155 98.1836 120.984C98.5356 120.813 98.9036 120.728 99.2876 120.728C100.173 120.728 100.856 121.059 101.336 121.72C101.816 122.381 102.056 123.309 102.056 124.504V125.368C102.056 126.531 101.762 127.453 101.176 128.136C100.589 128.819 99.741 129.16 98.6316 129.16ZM98.7916 122.44C98.5463 122.44 98.285 122.515 98.0076 122.664C97.741 122.803 97.405 123.075 96.9996 123.48V127.192C97.5223 127.405 98.0023 127.512 98.4396 127.512C99.0583 127.512 99.501 127.32 99.7676 126.936C100.034 126.552 100.168 126.029 100.168 125.368V124.504C100.168 123.789 100.045 123.267 99.7996 122.936C99.565 122.605 99.229 122.44 98.7916 122.44ZM107.503 129.16C107.236 129.16 106.964 129.133 106.687 129.08C106.42 129.027 106.148 128.952 105.871 128.856V132.408H104.031V120.888H105.775V121.992C106.276 121.491 106.703 121.155 107.055 120.984C107.407 120.813 107.775 120.728 108.159 120.728C109.044 120.728 109.727 121.059 110.207 121.72C110.687 122.381 110.927 123.309 110.927 124.504V125.368C110.927 126.531 110.634 127.453 110.047 128.136C109.46 128.819 108.612 129.16 107.503 129.16ZM107.663 122.44C107.418 122.44 107.156 122.515 106.879 122.664C106.612 122.803 106.276 123.075 105.871 123.48V127.192C106.394 127.405 106.874 127.512 107.311 127.512C107.93 127.512 108.372 127.32 108.639 126.936C108.906 126.552 109.039 126.029 109.039 125.368V124.504C109.039 123.789 108.916 123.267 108.671 122.936C108.436 122.605 108.1 122.44 107.663 122.44Z" fill="white"/>
<path d="M42.272 172V163.84H44.816C45.6 163.84 46.196 164.048 46.604 164.464C47.02 164.872 47.228 165.42 47.228 166.108V166.744C47.228 167.432 47.02 167.984 46.604 168.4C46.196 168.816 45.6 169.024 44.816 169.024H43.316V172H42.272ZM44.816 164.824H43.316V168.052H44.816C45.248 168.052 45.576 167.936 45.8 167.704C46.032 167.472 46.148 167.152 46.148 166.744V166.108C46.148 165.708 46.032 165.396 45.8 165.172C45.576 164.94 45.248 164.824 44.816 164.824ZM51.6771 166.924C51.3171 166.924 50.9651 166.988 50.6211 167.116C50.2851 167.244 49.9251 167.488 49.5411 167.848V172H48.5571V166.06H49.4931V167.02C49.9011 166.62 50.2731 166.34 50.6091 166.18C50.9531 166.02 51.3091 165.94 51.6771 165.94V166.924ZM57.5473 168.664V169.384C57.5473 170.232 57.3273 170.9 56.8873 171.388C56.4553 171.876 55.8353 172.12 55.0273 172.12C54.2273 172.12 53.6073 171.876 53.1673 171.388C52.7273 170.9 52.5073 170.232 52.5073 169.384V168.664C52.5073 167.832 52.7233 167.172 53.1553 166.684C53.5953 166.188 54.2193 165.94 55.0273 165.94C55.8353 165.94 56.4553 166.188 56.8873 166.684C57.3273 167.172 57.5473 167.832 57.5473 168.664ZM56.5273 168.664C56.5273 168.096 56.3993 167.652 56.1433 167.332C55.8873 167.004 55.5153 166.84 55.0273 166.84C54.5473 166.84 54.1753 167.004 53.9113 167.332C53.6553 167.652 53.5273 168.096 53.5273 168.664V169.384C53.5273 169.976 53.6553 170.432 53.9113 170.752C54.1753 171.072 54.5473 171.232 55.0273 171.232C55.5153 171.232 55.8873 171.072 56.1433 170.752C56.3993 170.432 56.5273 169.976 56.5273 169.384V168.664ZM60.2595 164.608H59.1555V163.504H60.2595V164.608ZM57.9195 174.676V173.74C58.3435 173.74 58.6635 173.64 58.8795 173.44C59.1035 173.24 59.2155 172.852 59.2155 172.276V166.06H60.1995V172.276C60.1995 172.74 60.1315 173.152 59.9955 173.512C59.8595 173.872 59.6235 174.156 59.2875 174.364C58.9595 174.572 58.5035 174.676 57.9195 174.676ZM66.509 171.652C66.149 171.828 65.789 171.948 65.429 172.012C65.069 172.084 64.737 172.12 64.433 172.12C63.577 172.12 62.937 171.876 62.513 171.388C62.097 170.9 61.889 170.232 61.889 169.384V168.664C61.889 167.84 62.097 167.18 62.513 166.684C62.937 166.188 63.533 165.94 64.301 165.94C64.709 165.94 65.081 166.024 65.417 166.192C65.761 166.352 66.033 166.6 66.233 166.936C66.441 167.264 66.545 167.688 66.545 168.208C66.545 168.544 66.497 168.928 66.401 169.36H62.861V169.384C62.861 169.992 62.985 170.452 63.233 170.764C63.489 171.076 63.897 171.232 64.457 171.232C64.713 171.232 64.993 171.2 65.297 171.136C65.609 171.072 65.913 170.972 66.209 170.836L66.509 171.652ZM64.301 166.804C63.837 166.804 63.485 166.956 63.245 167.26C63.013 167.556 62.885 167.976 62.861 168.52H65.549C65.573 168.376 65.585 168.24 65.585 168.112C65.585 167.664 65.457 167.336 65.201 167.128C64.953 166.912 64.653 166.804 64.301 166.804ZM68.8239 168.676V169.384C68.8239 169.992 68.9359 170.452 69.1599 170.764C69.3839 171.068 69.7399 171.22 70.2279 171.22C70.7079 171.22 71.2239 171.096 71.7759 170.848L72.0759 171.676C71.4199 171.972 70.7839 172.12 70.1679 172.12C69.3999 172.12 68.8159 171.876 68.4159 171.388C68.0159 170.9 67.8159 170.232 67.8159 169.384V168.676C67.8159 167.828 68.0159 167.16 68.4159 166.672C68.8159 166.184 69.3999 165.94 70.1679 165.94C70.4559 165.94 70.7519 165.98 71.0559 166.06C71.3679 166.132 71.6799 166.236 71.9919 166.372L71.6919 167.212C71.4279 167.1 71.1719 167.012 70.9239 166.948C70.6839 166.884 70.4519 166.852 70.2279 166.852C69.7399 166.852 69.3839 167.008 69.1599 167.32C68.9359 167.624 68.8239 168.076 68.8239 168.676ZM76.6625 171.784C76.2145 172.008 75.7385 172.12 75.2345 172.12C74.8025 172.12 74.4625 172.032 74.2145 171.856C73.9745 171.68 73.8025 171.444 73.6985 171.148C73.6025 170.852 73.5545 170.524 73.5545 170.164V166.924H72.5225V166.06H73.5545V164.404H74.5385V166.06H76.4825V166.924H74.5385V170.128C74.5385 170.544 74.6065 170.832 74.7425 170.992C74.8865 171.144 75.1065 171.22 75.4025 171.22C75.5465 171.22 75.6945 171.204 75.8465 171.172C76.0065 171.132 76.1785 171.068 76.3625 170.98L76.6625 171.784ZM80.5464 172V163.84H83.0784C84.0144 163.84 84.7344 164.124 85.2384 164.692C85.7424 165.252 85.9944 166.028 85.9944 167.02V168.808C85.9944 169.808 85.7424 170.592 85.2384 171.16C84.7344 171.72 84.0144 172 83.0784 172H80.5464ZM83.0544 164.824H81.5904V171.028H83.0544C84.2944 171.028 84.9144 170.288 84.9144 168.808V167.02C84.9144 165.556 84.2944 164.824 83.0544 164.824ZM92.159 171.652C91.799 171.828 91.439 171.948 91.079 172.012C90.719 172.084 90.387 172.12 90.083 172.12C89.227 172.12 88.587 171.876 88.163 171.388C87.747 170.9 87.539 170.232 87.539 169.384V168.664C87.539 167.84 87.747 167.18 88.163 166.684C88.587 166.188 89.183 165.94 89.951 165.94C90.359 165.94 90.731 166.024 91.067 166.192C91.411 166.352 91.683 166.6 91.883 166.936C92.091 167.264 92.195 167.688 92.195 168.208C92.195 168.544 92.147 168.928 92.051 169.36H88.511V169.384C88.511 169.992 88.635 170.452 88.883 170.764C89.139 171.076 89.547 171.232 90.107 171.232C90.363 171.232 90.643 171.2 90.947 171.136C91.259 171.072 91.563 170.972 91.859 170.836L92.159 171.652ZM89.951 166.804C89.487 166.804 89.135 166.956 88.895 167.26C88.663 167.556 88.535 167.976 88.511 168.52H91.199C91.223 168.376 91.235 168.24 91.235 168.112C91.235 167.664 91.107 167.336 90.851 167.128C90.603 166.912 90.303 166.804 89.951 166.804ZM97.0419 171.784C96.5939 172.008 96.1179 172.12 95.6139 172.12C95.1819 172.12 94.8419 172.032 94.5939 171.856C94.3539 171.68 94.1819 171.444 94.0779 171.148C93.9819 170.852 93.9339 170.524 93.9339 170.164V166.924H92.9019V166.06H93.9339V164.404H94.9179V166.06H96.8619V166.924H94.9179V170.128C94.9179 170.544 94.9859 170.832 95.1219 170.992C95.2659 171.144 95.4859 171.22 95.7819 171.22C95.9259 171.22 96.0739 171.204 96.2259 171.172C96.3859 171.132 96.5579 171.068 96.7419 170.98L97.0419 171.784ZM102.56 172.06C102.192 172.06 101.896 171.976 101.672 171.808C101.456 171.64 101.304 171.432 101.216 171.184C100.824 171.528 100.468 171.772 100.148 171.916C99.8285 172.052 99.5085 172.12 99.1885 172.12C98.6685 172.12 98.2845 171.952 98.0365 171.616C97.7885 171.28 97.6645 170.868 97.6645 170.38C97.6645 170.052 97.7245 169.76 97.8445 169.504C97.9645 169.248 98.1685 169.048 98.4565 168.904C98.7445 168.752 99.1325 168.676 99.6205 168.676C99.8365 168.676 100.072 168.692 100.328 168.724C100.584 168.748 100.844 168.78 101.108 168.82V168.016C101.108 167.568 101.008 167.264 100.808 167.104C100.616 166.936 100.332 166.852 99.9565 166.852C99.4445 166.852 98.8725 166.992 98.2405 167.272L97.9285 166.456C98.2965 166.288 98.6485 166.16 98.9845 166.072C99.3205 165.984 99.6605 165.94 100.004 165.94C100.564 165.94 100.992 166.032 101.288 166.216C101.584 166.4 101.788 166.644 101.9 166.948C102.012 167.252 102.068 167.584 102.068 167.944V170.512C102.068 170.696 102.104 170.852 102.176 170.98C102.248 171.1 102.392 171.16 102.608 171.16H102.74V172.06H102.56ZM98.6365 170.368C98.6365 170.64 98.7005 170.86 98.8285 171.028C98.9565 171.196 99.1405 171.28 99.3805 171.28C99.5885 171.28 99.8285 171.22 100.1 171.1C100.372 170.972 100.708 170.72 101.108 170.344V169.588C100.564 169.5 100.084 169.456 99.6685 169.456C99.3005 169.456 99.0365 169.532 98.8765 169.684C98.7165 169.836 98.6365 170.064 98.6365 170.368ZM105.058 164.608H103.954V163.504H105.058V164.608ZM104.998 172H104.014V166.06H104.998V172ZM106.988 170.56V163.12H107.972V170.512C107.972 170.728 108.004 170.892 108.068 171.004C108.14 171.108 108.28 171.16 108.488 171.16H108.68V172.06H108.404C107.876 172.06 107.508 171.92 107.3 171.64C107.092 171.36 106.988 171 106.988 170.56ZM111.496 171.244C112.296 171.244 112.696 170.972 112.696 170.428C112.696 170.196 112.624 170.012 112.48 169.876C112.336 169.74 112.072 169.624 111.688 169.528L111.028 169.36C110.54 169.24 110.176 169.032 109.936 168.736C109.696 168.432 109.576 168.072 109.576 167.656C109.576 167.352 109.644 167.072 109.78 166.816C109.916 166.552 110.132 166.34 110.428 166.18C110.724 166.02 111.108 165.94 111.58 165.94C111.884 165.94 112.192 165.976 112.504 166.048C112.824 166.112 113.148 166.224 113.476 166.384L113.164 167.212C112.58 166.948 112.052 166.816 111.58 166.816C110.884 166.816 110.536 167.076 110.536 167.596C110.536 167.796 110.6 167.968 110.728 168.112C110.856 168.256 111.096 168.372 111.448 168.46L112.108 168.628C112.636 168.756 113.024 168.964 113.272 169.252C113.52 169.54 113.644 169.912 113.644 170.368C113.644 170.696 113.572 170.996 113.428 171.268C113.292 171.532 113.068 171.74 112.756 171.892C112.452 172.044 112.04 172.12 111.52 172.12C111.176 172.12 110.832 172.084 110.488 172.012C110.152 171.94 109.804 171.824 109.444 171.664L109.708 170.848C110.052 170.984 110.364 171.084 110.644 171.148C110.924 171.212 111.208 171.244 111.496 171.244ZM117.201 168.796V167.932H120.561V168.796H117.201ZM125.918 172H124.874V163.84H125.918V172ZM131.399 171.784C130.951 172.008 130.475 172.12 129.971 172.12C129.539 172.12 129.199 172.032 128.951 171.856C128.711 171.68 128.539 171.444 128.435 171.148C128.339 170.852 128.291 170.524 128.291 170.164V166.924H127.259V166.06H128.291V164.404H129.275V166.06H131.219V166.924H129.275V170.128C129.275 170.544 129.343 170.832 129.479 170.992C129.623 171.144 129.843 171.22 130.139 171.22C130.283 171.22 130.431 171.204 130.583 171.172C130.743 171.132 130.915 171.068 131.099 170.98L131.399 171.784ZM133.378 163.84V164.068C133.378 164.572 133.306 165.052 133.162 165.508C133.018 165.956 132.794 166.44 132.49 166.96L131.83 166.636C131.982 166.3 132.098 166 132.178 165.736C132.258 165.464 132.314 165.18 132.346 164.884C132.378 164.588 132.394 164.24 132.394 163.84H133.378ZM135.992 171.244C136.792 171.244 137.192 170.972 137.192 170.428C137.192 170.196 137.12 170.012 136.976 169.876C136.832 169.74 136.568 169.624 136.184 169.528L135.524 169.36C135.036 169.24 134.672 169.032 134.432 168.736C134.192 168.432 134.072 168.072 134.072 167.656C134.072 167.352 134.14 167.072 134.276 166.816C134.412 166.552 134.628 166.34 134.924 166.18C135.22 166.02 135.604 165.94 136.076 165.94C136.38 165.94 136.688 165.976 137 166.048C137.32 166.112 137.644 166.224 137.972 166.384L137.66 167.212C137.076 166.948 136.548 166.816 136.076 166.816C135.38 166.816 135.032 167.076 135.032 167.596C135.032 167.796 135.096 167.968 135.224 168.112C135.352 168.256 135.592 168.372 135.944 168.46L136.604 168.628C137.132 168.756 137.52 168.964 137.768 169.252C138.016 169.54 138.14 169.912 138.14 170.368C138.14 170.696 138.068 170.996 137.924 171.268C137.788 171.532 137.564 171.74 137.252 171.892C136.948 172.044 136.536 172.12 136.016 172.12C135.672 172.12 135.328 172.084 134.984 172.012C134.648 171.94 134.3 171.824 133.94 171.664L134.204 170.848C134.548 170.984 134.86 171.084 135.14 171.148C135.42 171.212 135.704 171.244 135.992 171.244ZM145.201 166.924H143.257V172H142.273V166.924H141.241V166.06H142.273V165.076C142.273 164.708 142.333 164.368 142.453 164.056C142.581 163.736 142.785 163.48 143.065 163.288C143.345 163.096 143.717 163 144.181 163C144.413 163 144.657 163.028 144.913 163.084C145.177 163.132 145.421 163.208 145.645 163.312L145.369 164.14C144.961 163.98 144.605 163.9 144.301 163.9C143.965 163.9 143.705 163.992 143.521 164.176C143.345 164.36 143.257 164.656 143.257 165.064V166.06H145.201V166.924ZM149.816 172V171.16C149.4 171.52 149.028 171.772 148.7 171.916C148.372 172.052 148.044 172.12 147.716 172.12C147.188 172.12 146.784 171.948 146.504 171.604C146.224 171.252 146.084 170.76 146.084 170.128V166.06H147.068V169.984C147.068 170.4 147.14 170.708 147.284 170.908C147.436 171.1 147.66 171.196 147.956 171.196C148.18 171.196 148.432 171.14 148.712 171.028C148.992 170.916 149.34 170.692 149.756 170.356V166.06H150.74V172H149.816ZM155.596 166.864C155.372 166.864 155.108 166.92 154.804 167.032C154.508 167.144 154.148 167.372 153.724 167.716V172H152.74V166.06H153.676V166.888C154.1 166.528 154.484 166.28 154.828 166.144C155.18 166.008 155.516 165.94 155.836 165.94C156.388 165.94 156.808 166.116 157.096 166.468C157.392 166.812 157.54 167.304 157.54 167.944V172H156.556V168.088C156.556 167.272 156.236 166.864 155.596 166.864ZM160.171 168.676V169.384C160.171 169.992 160.283 170.452 160.507 170.764C160.731 171.068 161.087 171.22 161.575 171.22C162.055 171.22 162.571 171.096 163.123 170.848L163.423 171.676C162.767 171.972 162.131 172.12 161.515 172.12C160.747 172.12 160.163 171.876 159.763 171.388C159.363 170.9 159.163 170.232 159.163 169.384V168.676C159.163 167.828 159.363 167.16 159.763 166.672C160.163 166.184 160.747 165.94 161.515 165.94C161.803 165.94 162.099 165.98 162.403 166.06C162.715 166.132 163.027 166.236 163.339 166.372L163.039 167.212C162.775 167.1 162.519 167.012 162.271 166.948C162.031 166.884 161.799 166.852 161.575 166.852C161.087 166.852 160.731 167.008 160.507 167.32C160.283 167.624 160.171 168.076 160.171 168.676ZM168.01 171.784C167.562 172.008 167.086 172.12 166.582 172.12C166.15 172.12 165.81 172.032 165.562 171.856C165.322 171.68 165.15 171.444 165.046 171.148C164.95 170.852 164.902 170.524 164.902 170.164V166.924H163.87V166.06H164.902V164.404H165.886V166.06H167.83V166.924H165.886V170.128C165.886 170.544 165.954 170.832 166.09 170.992C166.234 171.144 166.454 171.22 166.75 171.22C166.894 171.22 167.042 171.204 167.194 171.172C167.354 171.132 167.526 171.068 167.71 170.98L168.01 171.784ZM170.228 164.608H169.124V163.504H170.228V164.608ZM170.168 172H169.184V166.06H170.168V172ZM176.874 168.664V169.384C176.874 170.232 176.654 170.9 176.214 171.388C175.782 171.876 175.162 172.12 174.354 172.12C173.554 172.12 172.934 171.876 172.494 171.388C172.054 170.9 171.834 170.232 171.834 169.384V168.664C171.834 167.832 172.05 167.172 172.482 166.684C172.922 166.188 173.546 165.94 174.354 165.94C175.162 165.94 175.782 166.188 176.214 166.684C176.654 167.172 176.874 167.832 176.874 168.664ZM175.854 168.664C175.854 168.096 175.726 167.652 175.47 167.332C175.214 167.004 174.842 166.84 174.354 166.84C173.874 166.84 173.502 167.004 173.238 167.332C172.982 167.652 172.854 168.096 172.854 168.664V169.384C172.854 169.976 172.982 170.432 173.238 170.752C173.502 171.072 173.874 171.232 174.354 171.232C174.842 171.232 175.214 171.072 175.47 170.752C175.726 170.432 175.854 169.976 175.854 169.384V168.664ZM181.398 166.864C181.174 166.864 180.91 166.92 180.606 167.032C180.31 167.144 179.95 167.372 179.526 167.716V172H178.542V166.06H179.478V166.888C179.902 166.528 180.286 166.28 180.63 166.144C180.982 166.008 181.318 165.94 181.638 165.94C182.19 165.94 182.61 166.116 182.898 166.468C183.194 166.812 183.342 167.304 183.342 167.944V172H182.358V168.088C182.358 167.272 182.038 166.864 181.398 166.864ZM186.729 171.244C187.529 171.244 187.929 170.972 187.929 170.428C187.929 170.196 187.857 170.012 187.713 169.876C187.569 169.74 187.305 169.624 186.921 169.528L186.261 169.36C185.773 169.24 185.409 169.032 185.169 168.736C184.929 168.432 184.809 168.072 184.809 167.656C184.809 167.352 184.877 167.072 185.013 166.816C185.149 166.552 185.365 166.34 185.661 166.18C185.957 166.02 186.341 165.94 186.813 165.94C187.117 165.94 187.425 165.976 187.737 166.048C188.057 166.112 188.381 166.224 188.709 166.384L188.397 167.212C187.813 166.948 187.285 166.816 186.813 166.816C186.117 166.816 185.769 167.076 185.769 167.596C185.769 167.796 185.833 167.968 185.961 168.112C186.089 168.256 186.329 168.372 186.681 168.46L187.341 168.628C187.869 168.756 188.257 168.964 188.505 169.252C188.753 169.54 188.877 169.912 188.877 170.368C188.877 170.696 188.805 170.996 188.661 171.268C188.525 171.532 188.301 171.74 187.989 171.892C187.685 172.044 187.273 172.12 186.753 172.12C186.409 172.12 186.065 172.084 185.721 172.012C185.385 171.94 185.037 171.824 184.677 171.664L184.941 170.848C185.285 170.984 185.597 171.084 185.877 171.148C186.157 171.212 186.441 171.244 186.729 171.244ZM193.863 164.608H192.759V163.504H193.863V164.608ZM193.803 172H192.819V166.06H193.803V172ZM197.256 171.244C198.056 171.244 198.456 170.972 198.456 170.428C198.456 170.196 198.384 170.012 198.24 169.876C198.096 169.74 197.832 169.624 197.448 169.528L196.788 169.36C196.3 169.24 195.936 169.032 195.696 168.736C195.456 168.432 195.336 168.072 195.336 167.656C195.336 167.352 195.404 167.072 195.54 166.816C195.676 166.552 195.892 166.34 196.188 166.18C196.484 166.02 196.868 165.94 197.34 165.94C197.644 165.94 197.952 165.976 198.264 166.048C198.584 166.112 198.908 166.224 199.236 166.384L198.924 167.212C198.34 166.948 197.812 166.816 197.34 166.816C196.644 166.816 196.296 167.076 196.296 167.596C196.296 167.796 196.36 167.968 196.488 168.112C196.616 168.256 196.856 168.372 197.208 168.46L197.868 168.628C198.396 168.756 198.784 168.964 199.032 169.252C199.28 169.54 199.404 169.912 199.404 170.368C199.404 170.696 199.332 170.996 199.188 171.268C199.052 171.532 198.828 171.74 198.516 171.892C198.212 172.044 197.8 172.12 197.28 172.12C196.936 172.12 196.592 172.084 196.248 172.012C195.912 171.94 195.564 171.824 195.204 171.664L195.468 170.848C195.812 170.984 196.124 171.084 196.404 171.148C196.684 171.212 196.968 171.244 197.256 171.244ZM42.044 190.56V183.12H43.028V190.512C43.028 190.728 43.06 190.892 43.124 191.004C43.196 191.108 43.336 191.16 43.544 191.16H43.736V192.06H43.46C42.932 192.06 42.564 191.92 42.356 191.64C42.148 191.36 42.044 191 42.044 190.56ZM46.1441 184.608H45.0401V183.504H46.1441V184.608ZM46.0841 192H45.1001V186.06H46.0841V192ZM51.7455 192L50.0775 189.252C49.9255 189.404 49.7655 189.56 49.5975 189.72C49.4295 189.88 49.2535 190.04 49.0695 190.2V192H48.0855V183.12H49.0695V189.096C49.5895 188.592 50.0495 188.1 50.4495 187.62C50.8575 187.14 51.2295 186.62 51.5655 186.06H52.6935C52.4055 186.54 52.1095 186.984 51.8055 187.392C51.5095 187.792 51.1735 188.2 50.7975 188.616L52.9335 192H51.7455ZM58.2267 191.652C57.8667 191.828 57.5067 191.948 57.1467 192.012C56.7867 192.084 56.4547 192.12 56.1507 192.12C55.2947 192.12 54.6547 191.876 54.2307 191.388C53.8147 190.9 53.6067 190.232 53.6067 189.384V188.664C53.6067 187.84 53.8147 187.18 54.2307 186.684C54.6547 186.188 55.2507 185.94 56.0187 185.94C56.4267 185.94 56.7987 186.024 57.1347 186.192C57.4787 186.352 57.7507 186.6 57.9507 186.936C58.1587 187.264 58.2627 187.688 58.2627 188.208C58.2627 188.544 58.2147 188.928 58.1187 189.36H54.5787V189.384C54.5787 189.992 54.7027 190.452 54.9507 190.764C55.2067 191.076 55.6147 191.232 56.1747 191.232C56.4307 191.232 56.7107 191.2 57.0147 191.136C57.3267 191.072 57.6307 190.972 57.9267 190.836L58.2267 191.652ZM56.0187 186.804C55.5547 186.804 55.2027 186.956 54.9627 187.26C54.7307 187.556 54.6027 187.976 54.5787 188.52H57.2667C57.2907 188.376 57.3027 188.24 57.3027 188.112C57.3027 187.664 57.1747 187.336 56.9187 187.128C56.6707 186.912 56.3707 186.804 56.0187 186.804ZM66.6828 192.06C66.3148 192.06 66.0188 191.976 65.7948 191.808C65.5788 191.64 65.4268 191.432 65.3388 191.184C64.9468 191.528 64.5908 191.772 64.2708 191.916C63.9508 192.052 63.6308 192.12 63.3108 192.12C62.7908 192.12 62.4068 191.952 62.1588 191.616C61.9108 191.28 61.7868 190.868 61.7868 190.38C61.7868 190.052 61.8468 189.76 61.9668 189.504C62.0868 189.248 62.2908 189.048 62.5788 188.904C62.8668 188.752 63.2548 188.676 63.7428 188.676C63.9588 188.676 64.1948 188.692 64.4508 188.724C64.7068 188.748 64.9668 188.78 65.2308 188.82V188.016C65.2308 187.568 65.1308 187.264 64.9308 187.104C64.7388 186.936 64.4548 186.852 64.0788 186.852C63.5668 186.852 62.9948 186.992 62.3628 187.272L62.0508 186.456C62.4188 186.288 62.7708 186.16 63.1068 186.072C63.4428 185.984 63.7828 185.94 64.1268 185.94C64.6868 185.94 65.1148 186.032 65.4108 186.216C65.7068 186.4 65.9108 186.644 66.0228 186.948C66.1348 187.252 66.1908 187.584 66.1908 187.944V190.512C66.1908 190.696 66.2268 190.852 66.2988 190.98C66.3708 191.1 66.5148 191.16 66.7308 191.16H66.8628V192.06H66.6828ZM62.7588 190.368C62.7588 190.64 62.8228 190.86 62.9508 191.028C63.0788 191.196 63.2628 191.28 63.5028 191.28C63.7108 191.28 63.9508 191.22 64.2228 191.1C64.4948 190.972 64.8308 190.72 65.2308 190.344V189.588C64.6868 189.5 64.2068 189.456 63.7908 189.456C63.4228 189.456 63.1588 189.532 62.9988 189.684C62.8388 189.836 62.7588 190.064 62.7588 190.368ZM77.7941 186.06L76.2701 192H75.1301L73.8821 187.128L72.5981 192H71.4581L69.9461 186.06H70.9541L71.5541 188.544L72.0941 191.004L73.3781 186.06H74.4221L75.7061 191.028L76.2341 188.556L76.8221 186.06H77.7941ZM83.757 188.664V189.384C83.757 190.232 83.537 190.9 83.097 191.388C82.665 191.876 82.045 192.12 81.237 192.12C80.437 192.12 79.817 191.876 79.377 191.388C78.937 190.9 78.717 190.232 78.717 189.384V188.664C78.717 187.832 78.933 187.172 79.365 186.684C79.805 186.188 80.429 185.94 81.237 185.94C82.045 185.94 82.665 186.188 83.097 186.684C83.537 187.172 83.757 187.832 83.757 188.664ZM82.737 188.664C82.737 188.096 82.609 187.652 82.353 187.332C82.097 187.004 81.725 186.84 81.237 186.84C80.757 186.84 80.385 187.004 80.121 187.332C79.865 187.652 79.737 188.096 79.737 188.664V189.384C79.737 189.976 79.865 190.432 80.121 190.752C80.385 191.072 80.757 191.232 81.237 191.232C81.725 191.232 82.097 191.072 82.353 190.752C82.609 190.432 82.737 189.976 82.737 189.384V188.664ZM88.5452 186.924C88.1852 186.924 87.8332 186.988 87.4892 187.116C87.1532 187.244 86.7932 187.488 86.4092 187.848V192H85.4252V186.06H86.3612V187.02C86.7692 186.62 87.1412 186.34 87.4772 186.18C87.8212 186.02 88.1772 185.94 88.5452 185.94V186.924ZM93.3715 192L91.7035 189.252C91.5515 189.404 91.3915 189.56 91.2235 189.72C91.0555 189.88 90.8795 190.04 90.6955 190.2V192H89.7115V183.12H90.6955V189.096C91.2155 188.592 91.6755 188.1 92.0755 187.62C92.4835 187.14 92.8555 186.62 93.1915 186.06H94.3195C94.0315 186.54 93.7355 186.984 93.4315 187.392C93.1355 187.792 92.7995 188.2 92.4235 188.616L94.5595 192H93.3715ZM100.555 192.12C100.107 192.12 99.6425 192.028 99.1625 191.844V194.556H98.1785V186.06H99.1145V186.9C99.4825 186.548 99.8185 186.3 100.123 186.156C100.427 186.012 100.739 185.94 101.059 185.94C101.691 185.94 102.175 186.18 102.511 186.66C102.855 187.14 103.027 187.816 103.027 188.688V189.384C103.027 190.216 102.815 190.88 102.391 191.376C101.975 191.872 101.363 192.12 100.555 192.12ZM100.819 186.864C100.587 186.864 100.347 186.924 100.099 187.044C99.8505 187.164 99.5385 187.408 99.1625 187.776V190.944C99.3945 191.048 99.6185 191.124 99.8345 191.172C100.051 191.212 100.263 191.232 100.471 191.232C101.015 191.232 101.407 191.068 101.647 190.74C101.887 190.404 102.007 189.952 102.007 189.384V188.688C102.007 188.064 101.907 187.604 101.707 187.308C101.515 187.012 101.219 186.864 100.819 186.864ZM104.714 190.56V183.12H105.698V190.512C105.698 190.728 105.73 190.892 105.794 191.004C105.866 191.108 106.006 191.16 106.214 191.16H106.406V192.06H106.13C105.602 192.06 105.234 191.92 105.026 191.64C104.818 191.36 104.714 191 104.714 190.56ZM112.115 192.06C111.747 192.06 111.451 191.976 111.227 191.808C111.011 191.64 110.859 191.432 110.771 191.184C110.379 191.528 110.023 191.772 109.703 191.916C109.383 192.052 109.063 192.12 108.743 192.12C108.223 192.12 107.839 191.952 107.591 191.616C107.343 191.28 107.219 190.868 107.219 190.38C107.219 190.052 107.279 189.76 107.399 189.504C107.519 189.248 107.723 189.048 108.011 188.904C108.299 188.752 108.687 188.676 109.175 188.676C109.391 188.676 109.627 188.692 109.883 188.724C110.139 188.748 110.399 188.78 110.663 188.82V188.016C110.663 187.568 110.563 187.264 110.363 187.104C110.171 186.936 109.887 186.852 109.511 186.852C108.999 186.852 108.427 186.992 107.795 187.272L107.483 186.456C107.851 186.288 108.203 186.16 108.539 186.072C108.875 185.984 109.215 185.94 109.559 185.94C110.119 185.94 110.547 186.032 110.843 186.216C111.139 186.4 111.343 186.644 111.455 186.948C111.567 187.252 111.623 187.584 111.623 187.944V190.512C111.623 190.696 111.659 190.852 111.731 190.98C111.803 191.1 111.947 191.16 112.163 191.16H112.295V192.06H112.115ZM108.191 190.368C108.191 190.64 108.255 190.86 108.383 191.028C108.511 191.196 108.695 191.28 108.935 191.28C109.143 191.28 109.383 191.22 109.655 191.1C109.927 190.972 110.263 190.72 110.663 190.344V189.588C110.119 189.5 109.639 189.456 109.223 189.456C108.855 189.456 108.591 189.532 108.431 189.684C108.271 189.836 108.191 190.064 108.191 190.368ZM116.424 186.864C116.2 186.864 115.936 186.92 115.632 187.032C115.336 187.144 114.976 187.372 114.552 187.716V192H113.568V186.06H114.504V186.888C114.928 186.528 115.312 186.28 115.656 186.144C116.008 186.008 116.344 185.94 116.664 185.94C117.216 185.94 117.636 186.116 117.924 186.468C118.22 186.812 118.368 187.304 118.368 187.944V192H117.384V188.088C117.384 187.272 117.064 186.864 116.424 186.864ZM129.961 186.06L128.437 192H127.297L126.049 187.128L124.765 192H123.625L122.113 186.06H123.121L123.721 188.544L124.261 191.004L125.545 186.06H126.589L127.873 191.028L128.401 188.556L128.989 186.06H129.961ZM134.123 186.864C133.899 186.864 133.635 186.92 133.331 187.032C133.035 187.144 132.675 187.372 132.251 187.716V192H131.267V183.12H132.251V186.852C132.667 186.5 133.043 186.26 133.379 186.132C133.715 186.004 134.043 185.94 134.363 185.94C134.915 185.94 135.335 186.116 135.623 186.468C135.919 186.812 136.067 187.304 136.067 187.944V192H135.083V188.088C135.083 187.272 134.763 186.864 134.123 186.864ZM142.311 191.652C141.951 191.828 141.591 191.948 141.231 192.012C140.871 192.084 140.539 192.12 140.235 192.12C139.379 192.12 138.739 191.876 138.315 191.388C137.899 190.9 137.691 190.232 137.691 189.384V188.664C137.691 187.84 137.899 187.18 138.315 186.684C138.739 186.188 139.335 185.94 140.103 185.94C140.511 185.94 140.883 186.024 141.219 186.192C141.563 186.352 141.835 186.6 142.035 186.936C142.243 187.264 142.347 187.688 142.347 188.208C142.347 188.544 142.299 188.928 142.203 189.36H138.663V189.384C138.663 189.992 138.787 190.452 139.035 190.764C139.291 191.076 139.699 191.232 140.259 191.232C140.515 191.232 140.795 191.2 141.099 191.136C141.411 191.072 141.715 190.972 142.011 190.836L142.311 191.652ZM140.103 186.804C139.639 186.804 139.287 186.956 139.047 187.26C138.815 187.556 138.687 187.976 138.663 188.52H141.351C141.375 188.376 141.387 188.24 141.387 188.112C141.387 187.664 141.259 187.336 141.003 187.128C140.755 186.912 140.455 186.804 140.103 186.804ZM147.049 186.924C146.689 186.924 146.337 186.988 145.993 187.116C145.657 187.244 145.297 187.488 144.913 187.848V192H143.929V186.06H144.865V187.02C145.273 186.62 145.645 186.34 145.981 186.18C146.325 186.02 146.681 185.94 147.049 185.94V186.924ZM152.524 191.652C152.164 191.828 151.804 191.948 151.444 192.012C151.084 192.084 150.752 192.12 150.448 192.12C149.592 192.12 148.952 191.876 148.528 191.388C148.112 190.9 147.904 190.232 147.904 189.384V188.664C147.904 187.84 148.112 187.18 148.528 186.684C148.952 186.188 149.548 185.94 150.316 185.94C150.724 185.94 151.096 186.024 151.432 186.192C151.776 186.352 152.048 186.6 152.248 186.936C152.456 187.264 152.56 187.688 152.56 188.208C152.56 188.544 152.512 188.928 152.416 189.36H148.876V189.384C148.876 189.992 149 190.452 149.248 190.764C149.504 191.076 149.912 191.232 150.472 191.232C150.728 191.232 151.008 191.2 151.312 191.136C151.624 191.072 151.928 190.972 152.224 190.836L152.524 191.652ZM150.316 186.804C149.852 186.804 149.5 186.956 149.26 187.26C149.028 187.556 148.9 187.976 148.876 188.52H151.564C151.588 188.376 151.6 188.24 151.6 188.112C151.6 187.664 151.472 187.336 151.216 187.128C150.968 186.912 150.668 186.804 150.316 186.804ZM158.664 192.6C158.408 193.32 158.092 193.844 157.716 194.172C157.348 194.508 156.832 194.676 156.168 194.676V193.704C156.44 193.696 156.672 193.66 156.864 193.596C157.064 193.532 157.24 193.4 157.392 193.2C157.552 193.008 157.704 192.72 157.848 192.336L157.968 192.036L155.832 186.06H156.84L157.836 188.952L158.448 190.8L159.036 188.952L160.008 186.06H160.98L158.664 192.6ZM166.763 188.664V189.384C166.763 190.232 166.543 190.9 166.103 191.388C165.671 191.876 165.051 192.12 164.243 192.12C163.443 192.12 162.823 191.876 162.383 191.388C161.943 190.9 161.723 190.232 161.723 189.384V188.664C161.723 187.832 161.939 187.172 162.371 186.684C162.811 186.188 163.435 185.94 164.243 185.94C165.051 185.94 165.671 186.188 166.103 186.684C166.543 187.172 166.763 187.832 166.763 188.664ZM165.743 188.664C165.743 188.096 165.615 187.652 165.359 187.332C165.103 187.004 164.731 186.84 164.243 186.84C163.763 186.84 163.391 187.004 163.127 187.332C162.871 187.652 162.743 188.096 162.743 188.664V189.384C162.743 189.976 162.871 190.432 163.127 190.752C163.391 191.072 163.763 191.232 164.243 191.232C164.731 191.232 165.103 191.072 165.359 190.752C165.615 190.432 165.743 189.976 165.743 189.384V188.664ZM172.091 192V191.16C171.675 191.52 171.303 191.772 170.975 191.916C170.647 192.052 170.319 192.12 169.991 192.12C169.463 192.12 169.059 191.948 168.779 191.604C168.499 191.252 168.359 190.76 168.359 190.128V186.06H169.343V189.984C169.343 190.4 169.415 190.708 169.559 190.908C169.711 191.1 169.935 191.196 170.231 191.196C170.455 191.196 170.707 191.14 170.987 191.028C171.267 190.916 171.615 190.692 172.031 190.356V186.06H173.015V192H172.091ZM178.203 188.676V189.384C178.203 189.992 178.315 190.452 178.539 190.764C178.763 191.068 179.119 191.22 179.607 191.22C180.087 191.22 180.603 191.096 181.155 190.848L181.455 191.676C180.799 191.972 180.163 192.12 179.547 192.12C178.779 192.12 178.195 191.876 177.795 191.388C177.395 190.9 177.195 190.232 177.195 189.384V188.676C177.195 187.828 177.395 187.16 177.795 186.672C178.195 186.184 178.779 185.94 179.547 185.94C179.835 185.94 180.131 185.98 180.435 186.06C180.747 186.132 181.059 186.236 181.371 186.372L181.071 187.212C180.807 187.1 180.551 187.012 180.303 186.948C180.063 186.884 179.831 186.852 179.607 186.852C179.119 186.852 178.763 187.008 178.539 187.32C178.315 187.624 178.203 188.076 178.203 188.676ZM187.122 192.06C186.754 192.06 186.458 191.976 186.234 191.808C186.018 191.64 185.866 191.432 185.778 191.184C185.386 191.528 185.03 191.772 184.71 191.916C184.39 192.052 184.07 192.12 183.75 192.12C183.23 192.12 182.846 191.952 182.598 191.616C182.35 191.28 182.226 190.868 182.226 190.38C182.226 190.052 182.286 189.76 182.406 189.504C182.526 189.248 182.73 189.048 183.018 188.904C183.306 188.752 183.694 188.676 184.182 188.676C184.398 188.676 184.634 188.692 184.89 188.724C185.146 188.748 185.406 188.78 185.67 188.82V188.016C185.67 187.568 185.57 187.264 185.37 187.104C185.178 186.936 184.894 186.852 184.518 186.852C184.006 186.852 183.434 186.992 182.802 187.272L182.49 186.456C182.858 186.288 183.21 186.16 183.546 186.072C183.882 185.984 184.222 185.94 184.566 185.94C185.126 185.94 185.554 186.032 185.85 186.216C186.146 186.4 186.35 186.644 186.462 186.948C186.574 187.252 186.63 187.584 186.63 187.944V190.512C186.63 190.696 186.666 190.852 186.738 190.98C186.81 191.1 186.954 191.16 187.17 191.16H187.302V192.06H187.122ZM183.198 190.368C183.198 190.64 183.262 190.86 183.39 191.028C183.518 191.196 183.702 191.28 183.942 191.28C184.15 191.28 184.39 191.22 184.662 191.1C184.934 190.972 185.27 190.72 185.67 190.344V189.588C185.126 189.5 184.646 189.456 184.23 189.456C183.862 189.456 183.598 189.532 183.438 189.684C183.278 189.836 183.198 190.064 183.198 190.368ZM191.432 186.864C191.208 186.864 190.944 186.92 190.64 187.032C190.344 187.144 189.984 187.372 189.56 187.716V192H188.576V186.06H189.512V186.888C189.936 186.528 190.32 186.28 190.664 186.144C191.016 186.008 191.352 185.94 191.672 185.94C192.224 185.94 192.644 186.116 192.932 186.468C193.228 186.812 193.376 187.304 193.376 187.944V192H192.392V188.088C192.392 187.272 192.072 186.864 191.432 186.864ZM202.149 192.06C201.781 192.06 201.485 191.976 201.261 191.808C201.045 191.64 200.893 191.432 200.805 191.184C200.413 191.528 200.057 191.772 199.737 191.916C199.417 192.052 199.097 192.12 198.777 192.12C198.257 192.12 197.873 191.952 197.625 191.616C197.377 191.28 197.253 190.868 197.253 190.38C197.253 190.052 197.313 189.76 197.433 189.504C197.553 189.248 197.757 189.048 198.045 188.904C198.333 188.752 198.721 188.676 199.209 188.676C199.425 188.676 199.661 188.692 199.917 188.724C200.173 188.748 200.433 188.78 200.697 188.82V188.016C200.697 187.568 200.597 187.264 200.397 187.104C200.205 186.936 199.921 186.852 199.545 186.852C199.033 186.852 198.461 186.992 197.829 187.272L197.517 186.456C197.885 186.288 198.237 186.16 198.573 186.072C198.909 185.984 199.249 185.94 199.593 185.94C200.153 185.94 200.581 186.032 200.877 186.216C201.173 186.4 201.377 186.644 201.489 186.948C201.601 187.252 201.657 187.584 201.657 187.944V190.512C201.657 190.696 201.693 190.852 201.765 190.98C201.837 191.1 201.981 191.16 202.197 191.16H202.329V192.06H202.149ZM198.225 190.368C198.225 190.64 198.289 190.86 198.417 191.028C198.545 191.196 198.729 191.28 198.969 191.28C199.177 191.28 199.417 191.22 199.689 191.1C199.961 190.972 200.297 190.72 200.697 190.344V189.588C200.153 189.5 199.673 189.456 199.257 189.456C198.889 189.456 198.625 189.532 198.465 189.684C198.305 189.836 198.225 190.064 198.225 190.368ZM207.215 192V191.172C206.847 191.524 206.511 191.772 206.207 191.916C205.911 192.052 205.603 192.12 205.283 192.12C204.651 192.12 204.163 191.88 203.819 191.4C203.483 190.92 203.315 190.248 203.315 189.384V188.688C203.315 187.848 203.523 187.18 203.939 186.684C204.363 186.188 204.975 185.94 205.775 185.94C206.007 185.94 206.239 185.964 206.471 186.012C206.703 186.06 206.935 186.128 207.167 186.216V183.12H208.151V192H207.215ZM204.335 189.384C204.335 190.008 204.431 190.468 204.623 190.764C204.823 191.052 205.119 191.196 205.511 191.196C205.743 191.196 205.983 191.14 206.231 191.028C206.479 190.908 206.791 190.664 207.167 190.296V187.128C206.935 187.024 206.711 186.952 206.495 186.912C206.279 186.864 206.067 186.84 205.859 186.84C205.315 186.84 204.923 187.004 204.683 187.332C204.451 187.66 204.335 188.112 204.335 188.688V189.384ZM213.763 192V191.172C213.395 191.524 213.059 191.772 212.755 191.916C212.459 192.052 212.151 192.12 211.831 192.12C211.199 192.12 210.711 191.88 210.367 191.4C210.031 190.92 209.863 190.248 209.863 189.384V188.688C209.863 187.848 210.071 187.18 210.487 186.684C210.911 186.188 211.523 185.94 212.323 185.94C212.555 185.94 212.787 185.964 213.019 186.012C213.251 186.06 213.483 186.128 213.715 186.216V183.12H214.699V192H213.763ZM210.883 189.384C210.883 190.008 210.979 190.468 211.171 190.764C211.371 191.052 211.667 191.196 212.059 191.196C212.291 191.196 212.531 191.14 212.779 191.028C213.027 190.908 213.339 190.664 213.715 190.296V187.128C213.483 187.024 213.259 186.952 213.043 186.912C212.827 186.864 212.615 186.84 212.407 186.84C211.863 186.84 211.471 187.004 211.231 187.332C210.999 187.66 210.883 188.112 210.883 188.688V189.384ZM43.1 204.608H41.996V203.504H43.1V204.608ZM43.04 212H42.056V206.06H43.04V212ZM48.3055 211.784C47.8575 212.008 47.3815 212.12 46.8775 212.12C46.4455 212.12 46.1055 212.032 45.8575 211.856C45.6175 211.68 45.4455 211.444 45.3415 211.148C45.2455 210.852 45.1975 210.524 45.1975 210.164V206.924H44.1655V206.06H45.1975V204.404H46.1815V206.06H48.1255V206.924H46.1815V210.128C46.1815 210.544 46.2495 210.832 46.3855 210.992C46.5295 211.144 46.7495 211.22 47.0455 211.22C47.1895 211.22 47.3375 211.204 47.4895 211.172C47.6495 211.132 47.8215 211.068 48.0055 210.98L48.3055 211.784ZM53.7881 211.652C53.4281 211.828 53.0681 211.948 52.7081 212.012C52.3481 212.084 52.0161 212.12 51.7121 212.12C50.8561 212.12 50.2161 211.876 49.7921 211.388C49.3761 210.9 49.1681 210.232 49.1681 209.384V208.664C49.1681 207.84 49.3761 207.18 49.7921 206.684C50.2161 206.188 50.8121 205.94 51.5801 205.94C51.9881 205.94 52.3601 206.024 52.6961 206.192C53.0401 206.352 53.3121 206.6 53.5121 206.936C53.7201 207.264 53.8241 207.688 53.8241 208.208C53.8241 208.544 53.7761 208.928 53.6801 209.36H50.1401V209.384C50.1401 209.992 50.2641 210.452 50.5121 210.764C50.7681 211.076 51.1761 211.232 51.7361 211.232C51.9921 211.232 52.2721 211.2 52.5761 211.136C52.8881 211.072 53.1921 210.972 53.4881 210.836L53.7881 211.652ZM51.5801 206.804C51.1161 206.804 50.7641 206.956 50.5241 207.26C50.2921 207.556 50.1641 207.976 50.1401 208.52H52.8281C52.8521 208.376 52.8641 208.24 52.8641 208.112C52.8641 207.664 52.7361 207.336 52.4801 207.128C52.2321 206.912 51.9321 206.804 51.5801 206.804ZM58.2029 206.864C57.9789 206.864 57.7269 206.924 57.4469 207.044C57.1669 207.156 56.8149 207.38 56.3909 207.716V212H55.4069V206.06H56.3429V206.888C56.7669 206.536 57.1429 206.292 57.4709 206.156C57.7989 206.012 58.1229 205.94 58.4429 205.94C58.8189 205.94 59.1309 206.028 59.3789 206.204C59.6269 206.372 59.8109 206.616 59.9309 206.936C60.3709 206.56 60.7629 206.3 61.1069 206.156C61.4589 206.012 61.8029 205.94 62.1389 205.94C62.6669 205.94 63.0709 206.116 63.3509 206.468C63.6309 206.812 63.7709 207.304 63.7709 207.944V212H62.7869V208.088C62.7869 207.272 62.4909 206.864 61.8989 206.864C61.6749 206.864 61.4189 206.924 61.1309 207.044C60.8509 207.156 60.4989 207.38 60.0749 207.716C60.0829 207.748 60.0869 207.784 60.0869 207.824C60.0869 207.864 60.0869 207.904 60.0869 207.944V212H59.1029V208.088C59.1029 207.272 58.8029 206.864 58.2029 206.864ZM67.1686 211.244C67.9686 211.244 68.3686 210.972 68.3686 210.428C68.3686 210.196 68.2966 210.012 68.1526 209.876C68.0086 209.74 67.7446 209.624 67.3606 209.528L66.7006 209.36C66.2126 209.24 65.8486 209.032 65.6086 208.736C65.3686 208.432 65.2486 208.072 65.2486 207.656C65.2486 207.352 65.3166 207.072 65.4526 206.816C65.5886 206.552 65.8046 206.34 66.1006 206.18C66.3966 206.02 66.7806 205.94 67.2526 205.94C67.5566 205.94 67.8646 205.976 68.1766 206.048C68.4966 206.112 68.8206 206.224 69.1486 206.384L68.8366 207.212C68.2526 206.948 67.7246 206.816 67.2526 206.816C66.5566 206.816 66.2086 207.076 66.2086 207.596C66.2086 207.796 66.2726 207.968 66.4006 208.112C66.5286 208.256 66.7686 208.372 67.1206 208.46L67.7806 208.628C68.3086 208.756 68.6966 208.964 68.9446 209.252C69.1926 209.54 69.3166 209.912 69.3166 210.368C69.3166 210.696 69.2446 210.996 69.1006 211.268C68.9646 211.532 68.7406 211.74 68.4286 211.892C68.1246 212.044 67.7126 212.12 67.1926 212.12C66.8486 212.12 66.5046 212.084 66.1606 212.012C65.8246 211.94 65.4766 211.824 65.1166 211.664L65.3806 210.848C65.7246 210.984 66.0366 211.084 66.3166 211.148C66.5966 211.212 66.8806 211.244 67.1686 211.244ZM76.3779 206.924H74.4339V212H73.4499V206.924H72.4179V206.06H73.4499V205.076C73.4499 204.708 73.5099 204.368 73.6299 204.056C73.7579 203.736 73.9619 203.48 74.2419 203.288C74.5219 203.096 74.8939 203 75.3579 203C75.5899 203 75.8339 203.028 76.0899 203.084C76.3539 203.132 76.5979 203.208 76.8219 203.312L76.5459 204.14C76.1379 203.98 75.7819 203.9 75.4779 203.9C75.1419 203.9 74.8819 203.992 74.6979 204.176C74.5219 204.36 74.4339 204.656 74.4339 205.064V206.06H76.3779V206.924ZM82.0372 208.664V209.384C82.0372 210.232 81.8172 210.9 81.3772 211.388C80.9452 211.876 80.3252 212.12 79.5172 212.12C78.7172 212.12 78.0972 211.876 77.6572 211.388C77.2172 210.9 76.9972 210.232 76.9972 209.384V208.664C76.9972 207.832 77.2132 207.172 77.6452 206.684C78.0852 206.188 78.7092 205.94 79.5172 205.94C80.3252 205.94 80.9452 206.188 81.3772 206.684C81.8172 207.172 82.0372 207.832 82.0372 208.664ZM81.0172 208.664C81.0172 208.096 80.8892 207.652 80.6332 207.332C80.3772 207.004 80.0052 206.84 79.5172 206.84C79.0372 206.84 78.6652 207.004 78.4012 207.332C78.1452 207.652 78.0172 208.096 78.0172 208.664V209.384C78.0172 209.976 78.1452 210.432 78.4012 210.752C78.6652 211.072 79.0372 211.232 79.5172 211.232C80.0052 211.232 80.3772 211.072 80.6332 210.752C80.8892 210.432 81.0172 209.976 81.0172 209.384V208.664ZM86.8254 206.924C86.4654 206.924 86.1134 206.988 85.7694 207.116C85.4334 207.244 85.0734 207.488 84.6894 207.848V212H83.7054V206.06H84.6414V207.02C85.0494 206.62 85.4214 206.34 85.7574 206.18C86.1014 206.02 86.4574 205.94 86.8254 205.94V206.924ZM92.5129 212.6C92.2569 213.32 91.9409 213.844 91.5649 214.172C91.1969 214.508 90.6809 214.676 90.0169 214.676V213.704C90.2889 213.696 90.5209 213.66 90.7129 213.596C90.9129 213.532 91.0889 213.4 91.2409 213.2C91.4009 213.008 91.5529 212.72 91.6969 212.336L91.8169 212.036L89.6809 206.06H90.6889L91.6849 208.952L92.2969 210.8L92.8849 208.952L93.8569 206.06H94.8289L92.5129 212.6ZM100.612 208.664V209.384C100.612 210.232 100.392 210.9 99.9519 211.388C99.5199 211.876 98.8999 212.12 98.0919 212.12C97.2919 212.12 96.6719 211.876 96.2319 211.388C95.7919 210.9 95.5719 210.232 95.5719 209.384V208.664C95.5719 207.832 95.7879 207.172 96.2199 206.684C96.6599 206.188 97.2839 205.94 98.0919 205.94C98.8999 205.94 99.5199 206.188 99.9519 206.684C100.392 207.172 100.612 207.832 100.612 208.664ZM99.5919 208.664C99.5919 208.096 99.4639 207.652 99.2079 207.332C98.9519 207.004 98.5799 206.84 98.0919 206.84C97.6119 206.84 97.2399 207.004 96.9759 207.332C96.7199 207.652 96.5919 208.096 96.5919 208.664V209.384C96.5919 209.976 96.7199 210.432 96.9759 210.752C97.2399 211.072 97.6119 211.232 98.0919 211.232C98.5799 211.232 98.9519 211.072 99.2079 210.752C99.4639 210.432 99.5919 209.976 99.5919 209.384V208.664ZM105.94 212V211.16C105.524 211.52 105.152 211.772 104.824 211.916C104.496 212.052 104.168 212.12 103.84 212.12C103.312 212.12 102.908 211.948 102.628 211.604C102.348 211.252 102.208 210.76 102.208 210.128V206.06H103.192V209.984C103.192 210.4 103.264 210.708 103.408 210.908C103.56 211.1 103.784 211.196 104.08 211.196C104.304 211.196 104.556 211.14 104.836 211.028C105.116 210.916 105.464 210.692 105.88 210.356V206.06H106.864V212H105.94ZM111.983 206.924C111.623 206.924 111.271 206.988 110.927 207.116C110.591 207.244 110.231 207.488 109.847 207.848V212H108.863V206.06H109.799V207.02C110.207 206.62 110.579 206.34 110.915 206.18C111.259 206.02 111.615 205.94 111.983 205.94V206.924ZM121.748 212V211.172C121.38 211.524 121.044 211.772 120.74 211.916C120.444 212.052 120.136 212.12 119.816 212.12C119.184 212.12 118.696 211.88 118.352 211.4C118.016 210.92 117.848 210.248 117.848 209.384V208.688C117.848 207.848 118.056 207.18 118.472 206.684C118.896 206.188 119.508 205.94 120.308 205.94C120.54 205.94 120.772 205.964 121.004 206.012C121.236 206.06 121.468 206.128 121.7 206.216V203.12H122.684V212H121.748ZM118.868 209.384C118.868 210.008 118.964 210.468 119.156 210.764C119.356 211.052 119.652 211.196 120.044 211.196C120.276 211.196 120.516 211.14 120.764 211.028C121.012 210.908 121.324 210.664 121.7 210.296V207.128C121.468 207.024 121.244 206.952 121.028 206.912C120.812 206.864 120.6 206.84 120.392 206.84C119.848 206.84 119.456 207.004 119.216 207.332C118.984 207.66 118.868 208.112 118.868 208.688V209.384ZM129.028 212.06C128.66 212.06 128.364 211.976 128.14 211.808C127.924 211.64 127.772 211.432 127.684 211.184C127.292 211.528 126.936 211.772 126.616 211.916C126.296 212.052 125.976 212.12 125.656 212.12C125.136 212.12 124.752 211.952 124.504 211.616C124.256 211.28 124.132 210.868 124.132 210.38C124.132 210.052 124.192 209.76 124.312 209.504C124.432 209.248 124.636 209.048 124.924 208.904C125.212 208.752 125.6 208.676 126.088 208.676C126.304 208.676 126.54 208.692 126.796 208.724C127.052 208.748 127.312 208.78 127.576 208.82V208.016C127.576 207.568 127.476 207.264 127.276 207.104C127.084 206.936 126.8 206.852 126.424 206.852C125.912 206.852 125.34 206.992 124.708 207.272L124.396 206.456C124.764 206.288 125.116 206.16 125.452 206.072C125.788 205.984 126.128 205.94 126.472 205.94C127.032 205.94 127.46 206.032 127.756 206.216C128.052 206.4 128.256 206.644 128.368 206.948C128.48 207.252 128.536 207.584 128.536 207.944V210.512C128.536 210.696 128.572 210.852 128.644 210.98C128.716 211.1 128.86 211.16 129.076 211.16H129.208V212.06H129.028ZM125.104 210.368C125.104 210.64 125.168 210.86 125.296 211.028C125.424 211.196 125.608 211.28 125.848 211.28C126.056 211.28 126.296 211.22 126.568 211.1C126.84 210.972 127.176 210.72 127.576 210.344V209.588C127.032 209.5 126.552 209.456 126.136 209.456C125.768 209.456 125.504 209.532 125.344 209.684C125.184 209.836 125.104 210.064 125.104 210.368ZM131.526 204.608H130.422V203.504H131.526V204.608ZM131.466 212H130.482V206.06H131.466V212ZM133.455 210.56V203.12H134.439V210.512C134.439 210.728 134.471 210.892 134.535 211.004C134.607 211.108 134.747 211.16 134.955 211.16H135.147V212.06H134.871C134.343 212.06 133.975 211.92 133.767 211.64C133.559 211.36 133.455 211 133.455 210.56ZM138.539 212.6C138.283 213.32 137.967 213.844 137.591 214.172C137.223 214.508 136.707 214.676 136.043 214.676V213.704C136.315 213.696 136.547 213.66 136.739 213.596C136.939 213.532 137.115 213.4 137.267 213.2C137.427 213.008 137.579 212.72 137.723 212.336L137.843 212.036L135.707 206.06H136.715L137.711 208.952L138.323 210.8L138.911 208.952L139.883 206.06H140.855L138.539 212.6ZM148.889 212.06C148.521 212.06 148.225 211.976 148.001 211.808C147.785 211.64 147.633 211.432 147.545 211.184C147.153 211.528 146.797 211.772 146.477 211.916C146.157 212.052 145.837 212.12 145.517 212.12C144.997 212.12 144.613 211.952 144.365 211.616C144.117 211.28 143.993 210.868 143.993 210.38C143.993 210.052 144.053 209.76 144.173 209.504C144.293 209.248 144.497 209.048 144.785 208.904C145.073 208.752 145.461 208.676 145.949 208.676C146.165 208.676 146.401 208.692 146.657 208.724C146.913 208.748 147.173 208.78 147.437 208.82V208.016C147.437 207.568 147.337 207.264 147.137 207.104C146.945 206.936 146.661 206.852 146.285 206.852C145.773 206.852 145.201 206.992 144.569 207.272L144.257 206.456C144.625 206.288 144.977 206.16 145.313 206.072C145.649 205.984 145.989 205.94 146.333 205.94C146.893 205.94 147.321 206.032 147.617 206.216C147.913 206.4 148.117 206.644 148.229 206.948C148.341 207.252 148.397 207.584 148.397 207.944V210.512C148.397 210.696 148.433 210.852 148.505 210.98C148.577 211.1 148.721 211.16 148.937 211.16H149.069V212.06H148.889ZM144.965 210.368C144.965 210.64 145.029 210.86 145.157 211.028C145.285 211.196 145.469 211.28 145.709 211.28C145.917 211.28 146.157 211.22 146.429 211.1C146.701 210.972 147.037 210.72 147.437 210.344V209.588C146.893 209.5 146.413 209.456 145.997 209.456C145.629 209.456 145.365 209.532 145.205 209.684C145.045 209.836 144.965 210.064 144.965 210.368ZM151.039 208.676V209.384C151.039 209.992 151.151 210.452 151.375 210.764C151.599 211.068 151.955 211.22 152.443 211.22C152.923 211.22 153.439 211.096 153.991 210.848L154.291 211.676C153.635 211.972 152.999 212.12 152.383 212.12C151.615 212.12 151.031 211.876 150.631 211.388C150.231 210.9 150.031 210.232 150.031 209.384V208.676C150.031 207.828 150.231 207.16 150.631 206.672C151.031 206.184 151.615 205.94 152.383 205.94C152.671 205.94 152.967 205.98 153.271 206.06C153.583 206.132 153.895 206.236 154.207 206.372L153.907 207.212C153.643 207.1 153.387 207.012 153.139 206.948C152.899 206.884 152.667 206.852 152.443 206.852C151.955 206.852 151.599 207.008 151.375 207.32C151.151 207.624 151.039 208.076 151.039 208.676ZM158.878 211.784C158.43 212.008 157.954 212.12 157.45 212.12C157.018 212.12 156.678 212.032 156.43 211.856C156.19 211.68 156.018 211.444 155.914 211.148C155.818 210.852 155.77 210.524 155.77 210.164V206.924H154.738V206.06H155.77V204.404H156.754V206.06H158.698V206.924H156.754V210.128C156.754 210.544 156.822 210.832 156.958 210.992C157.102 211.144 157.322 211.22 157.618 211.22C157.762 211.22 157.91 211.204 158.062 211.172C158.222 211.132 158.394 211.068 158.578 210.98L158.878 211.784ZM161.096 204.608H159.992V203.504H161.096V204.608ZM161.036 212H160.052V206.06H161.036V212ZM167.382 206.06L165.282 212H164.358L162.234 206.06H163.254L164.25 208.952L164.85 210.764L165.438 208.952L166.41 206.06H167.382ZM169.622 204.608H168.518V203.504H169.622V204.608ZM169.562 212H168.578V206.06H169.562V212ZM174.827 211.784C174.379 212.008 173.903 212.12 173.399 212.12C172.967 212.12 172.627 212.032 172.379 211.856C172.139 211.68 171.967 211.444 171.863 211.148C171.767 210.852 171.719 210.524 171.719 210.164V206.924H170.687V206.06H171.719V204.404H172.703V206.06H174.647V206.924H172.703V210.128C172.703 210.544 172.771 210.832 172.907 210.992C173.051 211.144 173.271 211.22 173.567 211.22C173.711 211.22 173.859 211.204 174.011 211.172C174.171 211.132 174.343 211.068 174.527 210.98L174.827 211.784ZM177.046 204.608H175.942V203.504H177.046V204.608ZM176.986 212H176.002V206.06H176.986V212ZM183.295 211.652C182.935 211.828 182.575 211.948 182.215 212.012C181.855 212.084 181.523 212.12 181.219 212.12C180.363 212.12 179.723 211.876 179.299 211.388C178.883 210.9 178.675 210.232 178.675 209.384V208.664C178.675 207.84 178.883 207.18 179.299 206.684C179.723 206.188 180.319 205.94 181.087 205.94C181.495 205.94 181.867 206.024 182.203 206.192C182.547 206.352 182.819 206.6 183.019 206.936C183.227 207.264 183.331 207.688 183.331 208.208C183.331 208.544 183.283 208.928 183.187 209.36H179.647V209.384C179.647 209.992 179.771 210.452 180.019 210.764C180.275 211.076 180.683 211.232 181.243 211.232C181.499 211.232 181.779 211.2 182.083 211.136C182.395 211.072 182.699 210.972 182.995 210.836L183.295 211.652ZM181.087 206.804C180.623 206.804 180.271 206.956 180.031 207.26C179.799 207.556 179.671 207.976 179.647 208.52H182.335C182.359 208.376 182.371 208.24 182.371 208.112C182.371 207.664 182.243 207.336 181.987 207.128C181.739 206.912 181.439 206.804 181.087 206.804ZM186.366 211.244C187.166 211.244 187.566 210.972 187.566 210.428C187.566 210.196 187.494 210.012 187.35 209.876C187.206 209.74 186.942 209.624 186.558 209.528L185.898 209.36C185.41 209.24 185.046 209.032 184.806 208.736C184.566 208.432 184.446 208.072 184.446 207.656C184.446 207.352 184.514 207.072 184.65 206.816C184.786 206.552 185.002 206.34 185.298 206.18C185.594 206.02 185.978 205.94 186.45 205.94C186.754 205.94 187.062 205.976 187.374 206.048C187.694 206.112 188.018 206.224 188.346 206.384L188.034 207.212C187.45 206.948 186.922 206.816 186.45 206.816C185.754 206.816 185.406 207.076 185.406 207.596C185.406 207.796 185.47 207.968 185.598 208.112C185.726 208.256 185.966 208.372 186.318 208.46L186.978 208.628C187.506 208.756 187.894 208.964 188.142 209.252C188.39 209.54 188.514 209.912 188.514 210.368C188.514 210.696 188.442 210.996 188.298 211.268C188.162 211.532 187.938 211.74 187.626 211.892C187.322 212.044 186.91 212.12 186.39 212.12C186.046 212.12 185.702 212.084 185.358 212.012C185.022 211.94 184.674 211.824 184.314 211.664L184.578 210.848C184.922 210.984 185.234 211.084 185.514 211.148C185.794 211.212 186.078 211.244 186.366 211.244ZM190.61 212H189.506V210.908H190.61V212Z" fill="#B3B3B3"/>
<path d="M40.156 248.548V247.84H45.832V248.548H43.384V256H42.604V248.548H40.156ZM50.6885 252.712V253.432C50.6885 254.28 50.4765 254.94 50.0525 255.412C49.6285 255.884 49.0325 256.12 48.2645 256.12C47.4885 256.12 46.8885 255.884 46.4645 255.412C46.0485 254.94 45.8405 254.28 45.8405 253.432V252.712C45.8405 251.896 46.0485 251.248 46.4645 250.768C46.8885 250.28 47.4885 250.036 48.2645 250.036C49.0405 250.036 49.6365 250.28 50.0525 250.768C50.4765 251.248 50.6885 251.896 50.6885 252.712ZM49.9325 252.712C49.9325 252.072 49.7885 251.576 49.5005 251.224C49.2125 250.872 48.8005 250.696 48.2645 250.696C47.7285 250.696 47.3165 250.872 47.0285 251.224C46.7405 251.576 46.5965 252.072 46.5965 252.712V253.432C46.5965 254.096 46.7405 254.6 47.0285 254.944C47.3165 255.288 47.7285 255.46 48.2645 255.46C48.8005 255.46 49.2125 255.288 49.5005 254.944C49.7885 254.6 49.9325 254.096 49.9325 253.432V252.712ZM57.049 252.712V253.432C57.049 254.28 56.837 254.94 56.413 255.412C55.989 255.884 55.393 256.12 54.625 256.12C53.849 256.12 53.249 255.884 52.825 255.412C52.409 254.94 52.201 254.28 52.201 253.432V252.712C52.201 251.896 52.409 251.248 52.825 250.768C53.249 250.28 53.849 250.036 54.625 250.036C55.401 250.036 55.997 250.28 56.413 250.768C56.837 251.248 57.049 251.896 57.049 252.712ZM56.293 252.712C56.293 252.072 56.149 251.576 55.861 251.224C55.573 250.872 55.161 250.696 54.625 250.696C54.089 250.696 53.677 250.872 53.389 251.224C53.101 251.576 52.957 252.072 52.957 252.712V253.432C52.957 254.096 53.101 254.6 53.389 254.944C53.677 255.288 54.089 255.46 54.625 255.46C55.161 255.46 55.573 255.288 55.861 254.944C56.149 254.6 56.293 254.096 56.293 253.432V252.712ZM58.8855 254.74V247.12H59.6055V254.656C59.6055 254.928 59.6415 255.12 59.7135 255.232C59.7935 255.344 59.9455 255.4 60.1695 255.4H60.3615V256.06H60.1335C59.7015 256.06 59.3855 255.952 59.1855 255.736C58.9855 255.52 58.8855 255.188 58.8855 254.74ZM68.1534 256V255.16C67.7054 255.536 67.3094 255.792 66.9654 255.928C66.6294 256.056 66.3094 256.12 66.0054 256.12C65.4934 256.12 65.1014 255.956 64.8294 255.628C64.5574 255.292 64.4214 254.82 64.4214 254.212V250.156H65.1414V254.08C65.1414 254.544 65.2214 254.888 65.3814 255.112C65.5414 255.328 65.7894 255.436 66.1254 255.436C66.3654 255.436 66.6374 255.376 66.9414 255.256C67.2534 255.128 67.6454 254.872 68.1174 254.488V250.156H68.8374V256H68.1534ZM72.2662 255.46C72.7542 255.46 73.0942 255.38 73.2862 255.22C73.4862 255.052 73.5862 254.812 73.5862 254.5C73.5862 254.236 73.5062 254.02 73.3462 253.852C73.1942 253.684 72.9062 253.548 72.4822 253.444L71.8342 253.288C71.3782 253.176 71.0302 252.98 70.7902 252.7C70.5582 252.412 70.4422 252.064 70.4422 251.656C70.4422 251.376 70.5022 251.116 70.6222 250.876C70.7502 250.628 70.9502 250.428 71.2222 250.276C71.5022 250.116 71.8702 250.036 72.3262 250.036C72.6222 250.036 72.9222 250.072 73.2262 250.144C73.5302 250.208 73.8302 250.312 74.1262 250.456L73.8862 251.068C73.3262 250.82 72.8062 250.696 72.3262 250.696C71.9502 250.696 71.6582 250.772 71.4502 250.924C71.2502 251.076 71.1502 251.304 71.1502 251.608C71.1502 251.84 71.2222 252.048 71.3662 252.232C71.5182 252.416 71.7942 252.556 72.1942 252.652L72.8542 252.808C73.8142 253.032 74.2942 253.584 74.2942 254.464C74.2942 254.768 74.2342 255.048 74.1142 255.304C73.9942 255.552 73.7902 255.752 73.5022 255.904C73.2142 256.048 72.8222 256.12 72.3262 256.12C71.9902 256.12 71.6582 256.084 71.3302 256.012C71.0022 255.94 70.6662 255.828 70.3222 255.676L70.5142 255.064C70.8342 255.192 71.1262 255.292 71.3902 255.364C71.6622 255.428 71.9542 255.46 72.2662 255.46ZM79.9587 255.652C79.6307 255.82 79.2867 255.94 78.9267 256.012C78.5747 256.084 78.2547 256.12 77.9667 256.12C77.1507 256.12 76.5427 255.884 76.1427 255.412C75.7507 254.94 75.5547 254.28 75.5547 253.432V252.712C75.5547 251.904 75.7547 251.256 76.1547 250.768C76.5547 250.28 77.1307 250.036 77.8827 250.036C78.4747 250.036 78.9707 250.212 79.3707 250.564C79.7787 250.916 79.9827 251.448 79.9827 252.16C79.9827 252.488 79.9347 252.864 79.8387 253.288H76.2867V253.432C76.2867 254.088 76.4187 254.592 76.6827 254.944C76.9467 255.288 77.3747 255.46 77.9667 255.46C78.2067 255.46 78.4827 255.428 78.7947 255.364C79.1147 255.3 79.4227 255.2 79.7187 255.064L79.9587 255.652ZM77.8827 250.696C77.3467 250.696 76.9467 250.872 76.6827 251.224C76.4187 251.568 76.2867 252.044 76.2867 252.652H79.2267C79.2427 252.548 79.2547 252.452 79.2627 252.364C79.2707 252.268 79.2747 252.18 79.2747 252.1C79.2747 251.604 79.1347 251.248 78.8547 251.032C78.5827 250.808 78.2587 250.696 77.8827 250.696ZM85.3007 256V255.172C84.9407 255.5 84.5967 255.74 84.2687 255.892C83.9407 256.044 83.6047 256.12 83.2607 256.12C82.6527 256.12 82.1847 255.884 81.8567 255.412C81.5287 254.94 81.3647 254.28 81.3647 253.432V252.712C81.3647 251.896 81.5687 251.248 81.9767 250.768C82.3847 250.28 82.9807 250.036 83.7647 250.036C84.0207 250.036 84.2727 250.064 84.5207 250.12C84.7687 250.168 85.0167 250.24 85.2647 250.336V247.12H85.9847V256H85.3007ZM82.1207 253.432C82.1207 254.12 82.2247 254.628 82.4327 254.956C82.6407 255.276 82.9647 255.436 83.4047 255.436C83.6607 255.436 83.9247 255.372 84.1967 255.244C84.4767 255.116 84.8327 254.856 85.2647 254.464V251.032C84.7687 250.808 84.2807 250.696 83.8007 250.696C83.2007 250.696 82.7687 250.876 82.5047 251.236C82.2487 251.596 82.1207 252.088 82.1207 252.712V253.432ZM93.5597 250.72C93.3117 250.72 93.0277 250.78 92.7077 250.9C92.3877 251.02 91.9877 251.276 91.5077 251.668V256H90.7877V247.12H91.5077V250.96C91.9557 250.584 92.3517 250.336 92.6957 250.216C93.0477 250.096 93.3757 250.036 93.6797 250.036C94.2157 250.036 94.6237 250.2 94.9037 250.528C95.1837 250.856 95.3237 251.328 95.3237 251.944V256H94.6037V252.076C94.6037 251.604 94.5157 251.26 94.3397 251.044C94.1717 250.828 93.9117 250.72 93.5597 250.72ZM101.533 255.652C101.205 255.82 100.861 255.94 100.501 256.012C100.149 256.084 99.8294 256.12 99.5414 256.12C98.7254 256.12 98.1174 255.884 97.7174 255.412C97.3254 254.94 97.1294 254.28 97.1294 253.432V252.712C97.1294 251.904 97.3294 251.256 97.7294 250.768C98.1294 250.28 98.7054 250.036 99.4574 250.036C100.049 250.036 100.545 250.212 100.945 250.564C101.353 250.916 101.557 251.448 101.557 252.16C101.557 252.488 101.509 252.864 101.413 253.288H97.8614V253.432C97.8614 254.088 97.9934 254.592 98.2574 254.944C98.5214 255.288 98.9494 255.46 99.5414 255.46C99.7814 255.46 100.057 255.428 100.369 255.364C100.689 255.3 100.997 255.2 101.293 255.064L101.533 255.652ZM99.4574 250.696C98.9214 250.696 98.5214 250.872 98.2574 251.224C97.9934 251.568 97.8614 252.044 97.8614 252.652H100.801C100.817 252.548 100.829 252.452 100.837 252.364C100.845 252.268 100.849 252.18 100.849 252.1C100.849 251.604 100.709 251.248 100.429 251.032C100.157 250.808 99.8334 250.696 99.4574 250.696ZM106.131 250.756C105.795 250.756 105.459 250.82 105.123 250.948C104.787 251.076 104.395 251.36 103.947 251.8V256H103.227V250.156H103.911V251.128C104.319 250.704 104.699 250.416 105.051 250.264C105.403 250.112 105.763 250.036 106.131 250.036V250.756ZM111.454 255.652C111.126 255.82 110.782 255.94 110.422 256.012C110.07 256.084 109.75 256.12 109.462 256.12C108.646 256.12 108.038 255.884 107.638 255.412C107.246 254.94 107.05 254.28 107.05 253.432V252.712C107.05 251.904 107.25 251.256 107.65 250.768C108.05 250.28 108.626 250.036 109.378 250.036C109.97 250.036 110.466 250.212 110.866 250.564C111.274 250.916 111.478 251.448 111.478 252.16C111.478 252.488 111.43 252.864 111.334 253.288H107.782V253.432C107.782 254.088 107.914 254.592 108.178 254.944C108.442 255.288 108.87 255.46 109.462 255.46C109.702 255.46 109.978 255.428 110.29 255.364C110.61 255.3 110.918 255.2 111.214 255.064L111.454 255.652ZM109.378 250.696C108.842 250.696 108.442 250.872 108.178 251.224C107.914 251.568 107.782 252.044 107.782 252.652H110.722C110.738 252.548 110.75 252.452 110.758 252.364C110.766 252.268 110.77 252.18 110.77 252.1C110.77 251.604 110.63 251.248 110.35 251.032C110.078 250.808 109.754 250.696 109.378 250.696ZM113.519 251.032H112.655V250.156H113.519V251.032ZM113.519 256H112.655V255.124H113.519V256ZM119.065 247.84L121.669 254.188L124.321 247.84H125.257V256H124.477V252.256L124.561 248.968L122.029 255.04H121.249L118.765 248.944L118.849 252.256V256H118.069V247.84H119.065ZM132.339 255.292V256H127.899V247.84H132.219V248.548H128.679V251.512H131.859V252.22H128.679V255.292H132.339ZM134.898 252.664V256H134.118V247.84H136.554C137.29 247.84 137.858 248.036 138.258 248.428C138.666 248.812 138.87 249.332 138.87 249.988V250.504C138.87 250.992 138.754 251.412 138.522 251.764C138.29 252.116 137.954 252.368 137.514 252.52C137.866 253.072 138.194 253.64 138.498 254.224C138.81 254.808 139.098 255.4 139.362 256H138.45C138.21 255.424 137.946 254.86 137.658 254.308C137.37 253.748 137.062 253.2 136.734 252.664H134.898ZM136.554 248.548H134.898V251.956H136.554C137.002 251.956 137.362 251.828 137.634 251.572C137.914 251.308 138.054 250.952 138.054 250.504V249.988C138.054 249.532 137.914 249.18 137.634 248.932C137.362 248.676 137.002 248.548 136.554 248.548ZM141.159 256V247.84H142.095C142.615 248.624 143.099 249.396 143.547 250.156C144.003 250.908 144.439 251.676 144.855 252.46C145.271 253.244 145.675 254.064 146.067 254.92L145.959 251.344V247.84H146.739V256H145.803C145.203 254.712 144.587 253.492 143.955 252.34C143.331 251.18 142.643 250.016 141.891 248.848L141.939 252.508V256H141.159Z" fill="#B3B3B3"/>
</svg>
