<svg width="14" height="14" viewBox="0 0 14 14" fill="none" xmlns="http://www.w3.org/2000/svg">
<path d="M10.971 3.249C10.8167 3.249 10.6659 3.29475 10.5377 3.38045C10.4094 3.46616 10.3094 3.58798 10.2504 3.73051C10.1913 3.87303 10.1759 4.02987 10.206 4.18117C10.2361 4.33248 10.3104 4.47146 10.4195 4.58054C10.5285 4.68963 10.6675 4.76392 10.8188 4.79401C10.9701 4.82411 11.127 4.80866 11.2695 4.74963C11.412 4.69059 11.5338 4.59062 11.6195 4.46234C11.7053 4.33407 11.751 4.18327 11.751 4.029C11.751 3.82213 11.6688 3.62373 11.5225 3.47746C11.3763 3.33118 11.1779 3.249 10.971 3.249ZM13.961 4.822C13.9484 4.28269 13.8474 3.74911 13.662 3.2425C13.4967 2.80904 13.2395 2.41653 12.908 2.092C12.5861 1.75883 12.1927 1.50321 11.7575 1.3445C11.2522 1.1535 10.7181 1.05019 10.178 1.039C9.489 1 9.268 1 7.5 1C5.732 1 5.511 1 4.822 1.039C4.28195 1.05019 3.74777 1.1535 3.2425 1.3445C2.80809 1.50482 2.41501 1.76021 2.092 2.092C1.75883 2.41387 1.50321 2.80729 1.3445 3.2425C1.1535 3.74777 1.05019 4.28195 1.039 4.822C1 5.511 1 5.732 1 7.5C1 9.268 1 9.489 1.039 10.178C1.05019 10.7181 1.1535 11.2522 1.3445 11.7575C1.50321 12.1927 1.75883 12.5861 2.092 12.908C2.41501 13.2398 2.80809 13.4952 3.2425 13.6555C3.74777 13.8465 4.28195 13.9498 4.822 13.961C5.511 14 5.732 14 7.5 14C9.268 14 9.489 14 10.178 13.961C10.7181 13.9498 11.2522 13.8465 11.7575 13.6555C12.1927 13.4968 12.5861 13.2412 12.908 12.908C13.241 12.5847 13.4984 12.1918 13.662 11.7575C13.8474 11.2509 13.9484 10.7173 13.961 10.178C13.961 9.489 14 9.268 14 7.5C14 5.732 14 5.511 13.961 4.822ZM12.791 10.1C12.7863 10.5126 12.7115 10.9214 12.57 11.309C12.4662 11.5919 12.2995 11.8475 12.0825 12.0565C11.8717 12.2713 11.6166 12.4377 11.335 12.544C10.9474 12.6855 10.5386 12.7603 10.126 12.765C9.476 12.7975 9.2355 12.804 7.526 12.804C5.8165 12.804 5.576 12.804 4.926 12.765C4.49758 12.773 4.07099 12.7071 3.665 12.57C3.39576 12.4582 3.15238 12.2923 2.95 12.0825C2.73426 11.8737 2.56965 11.6179 2.469 11.335C2.31031 10.9418 2.22229 10.5238 2.209 10.1C2.209 9.45 2.17 9.2095 2.17 7.5C2.17 5.7905 2.17 5.55 2.209 4.9C2.21191 4.47819 2.28892 4.06016 2.4365 3.665C2.55093 3.39064 2.72657 3.14608 2.95 2.95C3.14748 2.72651 3.39154 2.54901 3.665 2.43C4.06121 2.28703 4.4788 2.2123 4.9 2.209C5.55 2.209 5.7905 2.17 7.5 2.17C9.2095 2.17 9.45 2.17 10.1 2.209C10.5126 2.21373 10.9214 2.28846 11.309 2.43C11.6044 2.53962 11.8695 2.71785 12.0825 2.95C12.2955 3.14967 12.4619 3.39378 12.57 3.665C12.7145 4.06081 12.7892 4.47866 12.791 4.9C12.8235 5.55 12.83 5.7905 12.83 7.5C12.83 9.2095 12.8235 9.45 12.791 10.1ZM7.5 4.1655C6.84078 4.16678 6.19673 4.36344 5.64923 4.73062C5.10173 5.0978 4.67535 5.61903 4.42396 6.22844C4.17258 6.83785 4.10747 7.5081 4.23687 8.1545C4.36626 8.8009 4.68435 9.39445 5.15095 9.86014C5.61755 10.3258 6.21171 10.6428 6.85836 10.7709C7.50501 10.899 8.17513 10.8326 8.78405 10.58C9.39298 10.3275 9.91337 9.90009 10.2795 9.35187C10.6456 8.80366 10.841 8.15922 10.841 7.5C10.8419 7.06132 10.756 6.62679 10.5883 6.22142C10.4206 5.81605 10.1745 5.44783 9.86397 5.13793C9.55347 4.82804 9.18477 4.58259 8.77907 4.4157C8.37337 4.24882 7.93868 4.16379 7.5 4.1655ZM7.5 9.6645C7.0719 9.6645 6.65342 9.53755 6.29747 9.29972C5.94152 9.06188 5.66409 8.72383 5.50026 8.32832C5.33644 7.93281 5.29357 7.4976 5.37709 7.07773C5.46061 6.65786 5.66676 6.27218 5.96947 5.96947C6.27218 5.66676 6.65786 5.46061 7.07773 5.37709C7.4976 5.29357 7.93281 5.33644 8.32832 5.50026C8.72383 5.66409 9.06188 5.94152 9.29972 6.29747C9.53755 6.65342 9.6645 7.0719 9.6645 7.5C9.6645 7.78425 9.60851 8.06571 9.49974 8.32832C9.39096 8.59093 9.23152 8.82954 9.03053 9.03053C8.82954 9.23152 8.59093 9.39096 8.32832 9.49974C8.06571 9.60851 7.78425 9.6645 7.5 9.6645Z" fill="#09CD92"/>
</svg>
