<svg width="257" height="300" viewBox="0 0 257 300" fill="none" xmlns="http://www.w3.org/2000/svg">
<rect width="257" height="300" rx="2" fill="#353535"/>
<path d="M44.0125 46.5008V46.5C44.0125 45.6645 44.6776 45 45.5 45H52.5858L54.7929 47.2071L55.0858 47.5H55.5H65.5C66.329 47.5 67 48.171 67 49V61.5C67 62.329 66.329 63 65.5 63H45.5C44.6712 63 44.0002 62.3292 44 61.5004C44 61.5002 44 61.5001 44 61.5L44.0125 46.5008Z" stroke="#09CD92" stroke-width="2"/>
<path d="M207.258 53.4083C207.179 53.3325 207.086 53.273 206.983 53.2333C206.78 53.15 206.553 53.15 206.35 53.2333C206.248 53.273 206.154 53.3325 206.075 53.4083L204.408 55.075C204.251 55.2319 204.163 55.4448 204.163 55.6667C204.163 55.8886 204.251 56.1014 204.408 56.2583C204.565 56.4153 204.778 56.5034 205 56.5034C205.222 56.5034 205.435 56.4153 205.592 56.2583L205.833 56.0083V58.1667C205.833 58.3877 205.921 58.5996 206.077 58.7559C206.234 58.9122 206.446 59 206.667 59C206.888 59 207.1 58.9122 207.256 58.7559C207.412 58.5996 207.5 58.3877 207.5 58.1667V56.0083L207.742 56.2583C207.819 56.3364 207.911 56.3984 208.013 56.4407C208.114 56.4831 208.223 56.5048 208.333 56.5048C208.443 56.5048 208.552 56.4831 208.654 56.4407C208.755 56.3984 208.848 56.3364 208.925 56.2583C209.003 56.1809 209.065 56.0887 209.107 55.9872C209.15 55.8856 209.171 55.7767 209.171 55.6667C209.171 55.5567 209.15 55.4477 209.107 55.3462C209.065 55.2446 209.003 55.1525 208.925 55.075L207.258 53.4083ZM213.333 51.45C213.325 51.3735 213.308 51.298 213.283 51.225V51.15C213.243 51.0643 213.19 50.9856 213.125 50.9167L208.125 45.9167C208.056 45.8519 207.977 45.7984 207.892 45.7583H207.808C207.727 45.715 207.64 45.6841 207.55 45.6667H202.5C201.837 45.6667 201.201 45.9301 200.732 46.3989C200.263 46.8677 200 47.5036 200 48.1667V59.8333C200 60.4964 200.263 61.1323 200.732 61.6011C201.201 62.0699 201.837 62.3333 202.5 62.3333H210.833C211.496 62.3333 212.132 62.0699 212.601 61.6011C213.07 61.1323 213.333 60.4964 213.333 59.8333V51.5C213.333 51.5 213.333 51.5 213.333 51.45ZM208.333 48.5083L210.492 50.6667H209.167C208.946 50.6667 208.734 50.5789 208.577 50.4226C208.421 50.2663 208.333 50.0544 208.333 49.8333V48.5083ZM211.667 59.8333C211.667 60.0544 211.579 60.2663 211.423 60.4226C211.266 60.5789 211.054 60.6667 210.833 60.6667H202.5C202.279 60.6667 202.067 60.5789 201.911 60.4226C201.754 60.2663 201.667 60.0544 201.667 59.8333V48.1667C201.667 47.9457 201.754 47.7337 201.911 47.5774C202.067 47.4211 202.279 47.3333 202.5 47.3333H206.667V49.8333C206.667 50.4964 206.93 51.1323 207.399 51.6011C207.868 52.0699 208.504 52.3333 209.167 52.3333H211.667V59.8333Z" fill="#09CD92" fill-opacity="0.6"/>
<path d="M42.504 109V98.12H46.088C47.2293 98.12 48.0827 98.408 48.648 98.984C49.224 99.56 49.512 100.328 49.512 101.288V102.136C49.512 103.096 49.224 103.869 48.648 104.456C48.0827 105.032 47.2293 105.32 46.088 105.32H44.424V109H42.504ZM46.088 99.96H44.424V103.48H46.088C46.5573 103.48 46.9147 103.363 47.16 103.128C47.416 102.893 47.544 102.563 47.544 102.136V101.288C47.544 100.872 47.416 100.547 47.16 100.312C46.9147 100.077 46.5573 99.96 46.088 99.96ZM55.7113 102.568C55.2099 102.568 54.7299 102.648 54.2713 102.808C53.8233 102.957 53.3913 103.203 52.9753 103.544V109H51.1353V100.888H52.8793V102.136C53.4233 101.624 53.9086 101.261 54.3353 101.048C54.7619 100.835 55.2206 100.728 55.7113 100.728V102.568ZM63.8028 104.456V105.416C63.8028 106.547 63.4934 107.453 62.8748 108.136C62.2561 108.819 61.3814 109.16 60.2508 109.16C59.1201 109.16 58.2454 108.819 57.6268 108.136C57.0081 107.453 56.6988 106.547 56.6988 105.416V104.456C56.6988 103.325 57.0028 102.424 57.6108 101.752C58.2294 101.069 59.1094 100.728 60.2508 100.728C61.3921 100.728 62.2668 101.069 62.8748 101.752C63.4934 102.424 63.8028 103.325 63.8028 104.456ZM61.9148 104.456C61.9148 103.805 61.7708 103.299 61.4828 102.936C61.1948 102.563 60.7841 102.376 60.2508 102.376C59.7174 102.376 59.3068 102.563 59.0188 102.936C58.7308 103.299 58.5868 103.805 58.5868 104.456V105.416C58.5868 106.067 58.7308 106.579 59.0188 106.952C59.3068 107.325 59.7174 107.512 60.2508 107.512C60.7841 107.512 61.1948 107.325 61.4828 106.952C61.7708 106.579 61.9148 106.067 61.9148 105.416V104.456ZM67.5939 99.352H65.6579V97.448H67.5939V99.352ZM64.0419 112.568V110.84C64.5752 110.84 64.9859 110.712 65.2739 110.456C65.5619 110.2 65.7059 109.736 65.7059 109.064V100.888H67.5459V109.064C67.5459 109.672 67.4445 110.243 67.2419 110.776C67.0499 111.309 66.6979 111.741 66.1859 112.072C65.6845 112.403 64.9699 112.568 64.0419 112.568ZM76.0809 108.536C75.5262 108.76 75.0035 108.92 74.5129 109.016C74.0222 109.112 73.5582 109.16 73.1209 109.16C71.9155 109.16 71.0035 108.819 70.3849 108.136C69.7662 107.453 69.4569 106.547 69.4569 105.416V104.456C69.4569 103.699 69.5955 103.043 69.8729 102.488C70.1502 101.933 70.5449 101.501 71.0569 101.192C71.5689 100.883 72.1715 100.728 72.8649 100.728C73.4302 100.728 73.9582 100.845 74.4489 101.08C74.9502 101.304 75.3555 101.661 75.6649 102.152C75.9849 102.632 76.1449 103.251 76.1449 104.008C76.1449 104.232 76.1289 104.472 76.0969 104.728C76.0649 104.973 76.0115 105.235 75.9369 105.512H71.2329C71.2542 106.173 71.4195 106.669 71.7289 107C72.0382 107.331 72.5342 107.496 73.2169 107.496C73.5795 107.496 73.9529 107.453 74.3369 107.368C74.7315 107.283 75.1369 107.155 75.5529 106.984L76.0809 108.536ZM72.8649 102.28C72.3742 102.28 71.9902 102.44 71.7129 102.76C71.4462 103.069 71.2915 103.517 71.2489 104.104H74.3209C74.3315 104.051 74.3369 104.003 74.3369 103.96C74.3369 103.907 74.3369 103.859 74.3369 103.816C74.3369 103.304 74.1929 102.92 73.9049 102.664C73.6169 102.408 73.2702 102.28 72.8649 102.28ZM79.5126 104.472V105.416C79.5126 106.099 79.6353 106.611 79.8806 106.952C80.126 107.293 80.5206 107.464 81.0646 107.464C81.3313 107.464 81.63 107.432 81.9606 107.368C82.302 107.293 82.67 107.181 83.0646 107.032L83.5926 108.584C83.1126 108.776 82.6593 108.92 82.2326 109.016C81.806 109.112 81.3846 109.16 80.9686 109.16C79.902 109.16 79.086 108.819 78.5206 108.136C77.9553 107.453 77.6726 106.547 77.6726 105.416V104.472C77.6726 103.331 77.9553 102.424 78.5206 101.752C79.086 101.069 79.902 100.728 80.9686 100.728C81.374 100.728 81.7846 100.776 82.2006 100.872C82.6166 100.968 83.054 101.107 83.5126 101.288L82.9846 102.872C82.2166 102.573 81.5766 102.424 81.0646 102.424C80.5206 102.424 80.126 102.595 79.8806 102.936C79.6353 103.267 79.5126 103.779 79.5126 104.472ZM89.9965 108.728C89.7192 108.856 89.3992 108.957 89.0365 109.032C88.6738 109.117 88.3058 109.16 87.9325 109.16C87.3138 109.16 86.8178 109.032 86.4445 108.776C86.0712 108.52 85.7992 108.163 85.6285 107.704C85.4685 107.245 85.3885 106.723 85.3885 106.136V102.488H84.0765V100.888H85.3885V98.776H87.2285V100.888H89.7565V102.488H87.2285V106.136C87.2285 106.627 87.3192 106.968 87.5005 107.16C87.6925 107.341 87.9645 107.432 88.3165 107.432C88.4872 107.432 88.6685 107.416 88.8605 107.384C89.0632 107.341 89.2872 107.272 89.5325 107.176L89.9965 108.728ZM93.303 99.96V98.12H101.303V99.96H98.263V109H96.343V99.96H93.303ZM104.509 99.352H102.573V97.448H104.509V99.352ZM104.461 109H102.621V100.888H104.461V109ZM111.716 108.728C111.439 108.856 111.119 108.957 110.756 109.032C110.393 109.117 110.025 109.16 109.652 109.16C109.033 109.16 108.537 109.032 108.164 108.776C107.791 108.52 107.519 108.163 107.348 107.704C107.188 107.245 107.108 106.723 107.108 106.136V102.488H105.796V100.888H107.108V98.776H108.948V100.888H111.476V102.488H108.948V106.136C108.948 106.627 109.039 106.968 109.22 107.16C109.412 107.341 109.684 107.432 110.036 107.432C110.207 107.432 110.388 107.416 110.58 107.384C110.783 107.341 111.007 107.272 111.252 107.176L111.716 108.728ZM112.987 106.712V97.16H114.827V106.712C114.827 106.872 114.865 107.027 114.939 107.176C115.025 107.315 115.185 107.384 115.419 107.384H115.675V109.08H115.227C114.619 109.08 114.155 108.963 113.835 108.728C113.515 108.493 113.291 108.195 113.163 107.832C113.046 107.469 112.987 107.096 112.987 106.712ZM123.457 108.536C122.902 108.76 122.38 108.92 121.889 109.016C121.398 109.112 120.934 109.16 120.497 109.16C119.292 109.16 118.38 108.819 117.761 108.136C117.142 107.453 116.833 106.547 116.833 105.416V104.456C116.833 103.699 116.972 103.043 117.249 102.488C117.526 101.933 117.921 101.501 118.433 101.192C118.945 100.883 119.548 100.728 120.241 100.728C120.806 100.728 121.334 100.845 121.825 101.08C122.326 101.304 122.732 101.661 123.041 102.152C123.361 102.632 123.521 103.251 123.521 104.008C123.521 104.232 123.505 104.472 123.473 104.728C123.441 104.973 123.388 105.235 123.313 105.512H118.609C118.63 106.173 118.796 106.669 119.105 107C119.414 107.331 119.91 107.496 120.593 107.496C120.956 107.496 121.329 107.453 121.713 107.368C122.108 107.283 122.513 107.155 122.929 106.984L123.457 108.536ZM120.241 102.28C119.75 102.28 119.366 102.44 119.089 102.76C118.822 103.069 118.668 103.517 118.625 104.104H121.697C121.708 104.051 121.713 104.003 121.713 103.96C121.713 103.907 121.713 103.859 121.713 103.816C121.713 103.304 121.569 102.92 121.281 102.664C120.993 102.408 120.646 102.28 120.241 102.28ZM128.06 104.76V103.16H132.924V104.76H128.06ZM144.388 107.16V109H138.116V98.12H140.036V107.16H144.388ZM152.465 104.456V105.416C152.465 106.547 152.156 107.453 151.537 108.136C150.919 108.819 150.044 109.16 148.913 109.16C147.783 109.16 146.908 108.819 146.289 108.136C145.671 107.453 145.361 106.547 145.361 105.416V104.456C145.361 103.325 145.665 102.424 146.273 101.752C146.892 101.069 147.772 100.728 148.913 100.728C150.055 100.728 150.929 101.069 151.537 101.752C152.156 102.424 152.465 103.325 152.465 104.456ZM150.577 104.456C150.577 103.805 150.433 103.299 150.145 102.936C149.857 102.563 149.447 102.376 148.913 102.376C148.38 102.376 147.969 102.563 147.681 102.936C147.393 103.299 147.249 103.805 147.249 104.456V105.416C147.249 106.067 147.393 106.579 147.681 106.952C147.969 107.325 148.38 107.512 148.913 107.512C149.447 107.512 149.857 107.325 150.145 106.952C150.433 106.579 150.577 106.067 150.577 105.416V104.456ZM158.944 102.568C158.443 102.568 157.963 102.648 157.504 102.808C157.056 102.957 156.624 103.203 156.208 103.544V109H154.368V100.888H156.112V102.136C156.656 101.624 157.142 101.261 157.568 101.048C157.995 100.835 158.454 100.728 158.944 100.728V102.568ZM166.556 108.536C166.001 108.76 165.479 108.92 164.988 109.016C164.497 109.112 164.033 109.16 163.596 109.16C162.391 109.16 161.479 108.819 160.86 108.136C160.241 107.453 159.932 106.547 159.932 105.416V104.456C159.932 103.699 160.071 103.043 160.348 102.488C160.625 101.933 161.02 101.501 161.532 101.192C162.044 100.883 162.647 100.728 163.34 100.728C163.905 100.728 164.433 100.845 164.924 101.08C165.425 101.304 165.831 101.661 166.14 102.152C166.46 102.632 166.62 103.251 166.62 104.008C166.62 104.232 166.604 104.472 166.572 104.728C166.54 104.973 166.487 105.235 166.412 105.512H161.708C161.729 106.173 161.895 106.669 162.204 107C162.513 107.331 163.009 107.496 163.692 107.496C164.055 107.496 164.428 107.453 164.812 107.368C165.207 107.283 165.612 107.155 166.028 106.984L166.556 108.536ZM163.34 102.28C162.849 102.28 162.465 102.44 162.188 102.76C161.921 103.069 161.767 103.517 161.724 104.104H164.796C164.807 104.051 164.812 104.003 164.812 103.96C164.812 103.907 164.812 103.859 164.812 103.816C164.812 103.304 164.668 102.92 164.38 102.664C164.092 102.408 163.745 102.28 163.34 102.28ZM170.42 103.384V109H168.58V100.888H170.324V101.96C170.825 101.523 171.289 101.208 171.716 101.016C172.142 100.824 172.58 100.728 173.028 100.728C174.02 100.728 174.697 101.165 175.06 102.04C175.593 101.571 176.089 101.235 176.548 101.032C177.006 100.829 177.47 100.728 177.94 100.728C178.686 100.728 179.257 100.979 179.652 101.48C180.046 101.971 180.244 102.664 180.244 103.56V109H178.404V103.784C178.404 102.888 178.062 102.44 177.38 102.44C177.113 102.44 176.82 102.504 176.5 102.632C176.18 102.76 175.79 103.011 175.332 103.384V109H173.492V103.784C173.492 102.888 173.15 102.44 172.468 102.44C172.201 102.44 171.908 102.504 171.588 102.632C171.268 102.76 170.878 103.011 170.42 103.384ZM44.152 119.352H42.216V117.448H44.152V119.352ZM44.104 129H42.264V120.888H44.104V129ZM49.951 129.16C49.6843 129.16 49.4123 129.133 49.135 129.08C48.8683 129.027 48.5963 128.952 48.319 128.856V132.408H46.479V120.888H48.223V121.992C48.7243 121.491 49.151 121.155 49.503 120.984C49.855 120.813 50.223 120.728 50.607 120.728C51.4923 120.728 52.175 121.059 52.655 121.72C53.135 122.381 53.375 123.309 53.375 124.504V125.368C53.375 126.531 53.0817 127.453 52.495 128.136C51.9083 128.819 51.0603 129.16 49.951 129.16ZM50.111 122.44C49.8657 122.44 49.6043 122.515 49.327 122.664C49.0603 122.803 48.7243 123.075 48.319 123.48V127.192C48.8417 127.405 49.3217 127.512 49.759 127.512C50.3777 127.512 50.8203 127.32 51.087 126.936C51.3537 126.552 51.487 126.029 51.487 125.368V124.504C51.487 123.789 51.3643 123.267 51.119 122.936C50.8843 122.605 50.5483 122.44 50.111 122.44ZM57.6223 127.56C58.0169 127.56 58.3423 127.496 58.5983 127.368C58.8543 127.229 58.9823 127.027 58.9823 126.76C58.9823 126.525 58.8969 126.344 58.7263 126.216C58.5663 126.077 58.2729 125.955 57.8463 125.848L56.9343 125.608C56.2303 125.427 55.7076 125.123 55.3663 124.696C55.0356 124.269 54.8703 123.763 54.8703 123.176C54.8703 122.483 55.1103 121.901 55.5903 121.432C56.0703 120.963 56.8116 120.728 57.8143 120.728C58.2196 120.728 58.6463 120.776 59.0943 120.872C59.5423 120.968 60.0116 121.123 60.5023 121.336L59.9743 122.904C59.5263 122.691 59.1209 122.541 58.7583 122.456C58.3956 122.371 58.0756 122.328 57.7983 122.328C57.0409 122.328 56.6623 122.584 56.6623 123.096C56.6623 123.299 56.7263 123.459 56.8543 123.576C56.9929 123.693 57.2436 123.8 57.6063 123.896L58.5183 124.136C59.2969 124.339 59.8623 124.648 60.2143 125.064C60.5769 125.48 60.7583 126.003 60.7583 126.632C60.7583 127.379 60.5023 127.987 59.9903 128.456C59.4889 128.925 58.6943 129.16 57.6063 129.16C56.6783 129.16 55.7023 128.947 54.6783 128.52L55.1743 127C55.6756 127.203 56.1289 127.347 56.5343 127.432C56.9396 127.517 57.3023 127.56 57.6223 127.56ZM67.3191 129V127.928C66.8285 128.355 66.3698 128.669 65.9431 128.872C65.5165 129.064 65.0845 129.16 64.6471 129.16C63.9218 129.16 63.3618 128.915 62.9671 128.424C62.5725 127.923 62.3751 127.224 62.3751 126.328V120.888H64.2151V126.104C64.2151 127 64.5458 127.448 65.2071 127.448C65.4738 127.448 65.7618 127.384 66.0711 127.256C66.3911 127.128 66.7751 126.883 67.2231 126.52V120.888H69.0631V129H67.3191ZM73.2765 123.384V129H71.4365V120.888H73.1805V121.96C73.6818 121.523 74.1458 121.208 74.5725 121.016C74.9992 120.824 75.4365 120.728 75.8845 120.728C76.8765 120.728 77.5538 121.165 77.9165 122.04C78.4498 121.571 78.9458 121.235 79.4045 121.032C79.8632 120.829 80.3272 120.728 80.7965 120.728C81.5432 120.728 82.1138 120.979 82.5085 121.48C82.9032 121.971 83.1005 122.664 83.1005 123.56V129H81.2605V123.784C81.2605 122.888 80.9192 122.44 80.2365 122.44C79.9698 122.44 79.6765 122.504 79.3565 122.632C79.0365 122.76 78.6472 123.011 78.1885 123.384V129H76.3485V123.784C76.3485 122.888 76.0072 122.44 75.3245 122.44C75.0578 122.44 74.7645 122.504 74.4445 122.632C74.1245 122.76 73.7352 123.011 73.2765 123.384ZM93.1654 129V127.896C92.6747 128.387 92.248 128.723 91.8854 128.904C91.5334 129.075 91.1654 129.16 90.7814 129.16C89.9067 129.16 89.224 128.829 88.7334 128.168C88.2534 127.507 88.0134 126.579 88.0134 125.384V124.52C88.0134 123.357 88.3067 122.435 88.8934 121.752C89.48 121.069 90.328 120.728 91.4374 120.728C91.7147 120.728 91.9867 120.755 92.2534 120.808C92.5307 120.861 92.8027 120.936 93.0694 121.032V117.16H94.9094V129H93.1654ZM89.9014 125.384C89.9014 126.099 90.0187 126.621 90.2534 126.952C90.4987 127.283 90.84 127.448 91.2774 127.448C91.5227 127.448 91.784 127.379 92.0614 127.24C92.3387 127.091 92.6747 126.813 93.0694 126.408V122.696C92.5467 122.483 92.0667 122.376 91.6294 122.376C91.0107 122.376 90.568 122.568 90.3014 122.952C90.0347 123.336 89.9014 123.859 89.9014 124.52V125.384ZM103.925 124.456V125.416C103.925 126.547 103.615 127.453 102.997 128.136C102.378 128.819 101.503 129.16 100.373 129.16C99.242 129.16 98.3673 128.819 97.7486 128.136C97.13 127.453 96.8206 126.547 96.8206 125.416V124.456C96.8206 123.325 97.1246 122.424 97.7326 121.752C98.3513 121.069 99.2313 120.728 100.373 120.728C101.514 120.728 102.389 121.069 102.997 121.752C103.615 122.424 103.925 123.325 103.925 124.456ZM102.037 124.456C102.037 123.805 101.893 123.299 101.605 122.936C101.317 122.563 100.906 122.376 100.373 122.376C99.8393 122.376 99.4286 122.563 99.1406 122.936C98.8526 123.299 98.7086 123.805 98.7086 124.456V125.416C98.7086 126.067 98.8526 126.579 99.1406 126.952C99.4286 127.325 99.8393 127.512 100.373 127.512C100.906 127.512 101.317 127.325 101.605 126.952C101.893 126.579 102.037 126.067 102.037 125.416V124.456ZM105.78 126.712V117.16H107.62V126.712C107.62 126.872 107.657 127.027 107.732 127.176C107.817 127.315 107.977 127.384 108.212 127.384H108.468V129.08H108.02C107.412 129.08 106.948 128.963 106.628 128.728C106.308 128.493 106.084 128.195 105.956 127.832C105.838 127.469 105.78 127.096 105.78 126.712ZM116.73 124.456V125.416C116.73 126.547 116.42 127.453 115.802 128.136C115.183 128.819 114.308 129.16 113.178 129.16C112.047 129.16 111.172 128.819 110.554 128.136C109.935 127.453 109.626 126.547 109.626 125.416V124.456C109.626 123.325 109.93 122.424 110.538 121.752C111.156 121.069 112.036 120.728 113.178 120.728C114.319 120.728 115.194 121.069 115.802 121.752C116.42 122.424 116.73 123.325 116.73 124.456ZM114.842 124.456C114.842 123.805 114.698 123.299 114.41 122.936C114.122 122.563 113.711 122.376 113.178 122.376C112.644 122.376 112.234 122.563 111.946 122.936C111.658 123.299 111.514 123.805 111.514 124.456V125.416C111.514 126.067 111.658 126.579 111.946 126.952C112.234 127.325 112.644 127.512 113.178 127.512C113.711 127.512 114.122 127.325 114.41 126.952C114.698 126.579 114.842 126.067 114.842 125.416V124.456ZM123.209 122.568C122.707 122.568 122.227 122.648 121.769 122.808C121.321 122.957 120.889 123.203 120.473 123.544V129H118.633V120.888H120.377V122.136C120.921 121.624 121.406 121.261 121.833 121.048C122.259 120.835 122.718 120.728 123.209 120.728V122.568ZM129.975 127.56C130.37 127.56 130.695 127.496 130.951 127.368C131.207 127.229 131.335 127.027 131.335 126.76C131.335 126.525 131.25 126.344 131.079 126.216C130.919 126.077 130.626 125.955 130.199 125.848L129.287 125.608C128.583 125.427 128.061 125.123 127.719 124.696C127.389 124.269 127.223 123.763 127.223 123.176C127.223 122.483 127.463 121.901 127.943 121.432C128.423 120.963 129.165 120.728 130.167 120.728C130.573 120.728 130.999 120.776 131.447 120.872C131.895 120.968 132.365 121.123 132.855 121.336L132.327 122.904C131.879 122.691 131.474 122.541 131.111 122.456C130.749 122.371 130.429 122.328 130.151 122.328C129.394 122.328 129.015 122.584 129.015 123.096C129.015 123.299 129.079 123.459 129.207 123.576C129.346 123.693 129.597 123.8 129.959 123.896L130.871 124.136C131.65 124.339 132.215 124.648 132.567 125.064C132.93 125.48 133.111 126.003 133.111 126.632C133.111 127.379 132.855 127.987 132.343 128.456C131.842 128.925 131.047 129.16 129.959 129.16C129.031 129.16 128.055 128.947 127.031 128.52L127.527 127C128.029 127.203 128.482 127.347 128.887 127.432C129.293 127.517 129.655 127.56 129.975 127.56ZM136.728 119.352H134.792V117.448H136.728V119.352ZM136.68 129H134.84V120.888H136.68V129ZM143.935 128.728C143.658 128.856 143.338 128.957 142.975 129.032C142.613 129.117 142.245 129.16 141.871 129.16C141.253 129.16 140.757 129.032 140.383 128.776C140.01 128.52 139.738 128.163 139.567 127.704C139.407 127.245 139.327 126.723 139.327 126.136V122.488H138.015V120.888H139.327V118.776H141.167V120.888H143.695V122.488H141.167V126.136C141.167 126.627 141.258 126.968 141.439 127.16C141.631 127.341 141.903 127.432 142.255 127.432C142.426 127.432 142.607 127.416 142.799 127.384C143.002 127.341 143.226 127.272 143.471 127.176L143.935 128.728ZM146.647 129H144.711V127.096H146.647V129Z" fill="white"/>
<path d="M42.272 172V163.84H44.816C45.6 163.84 46.196 164.048 46.604 164.464C47.02 164.872 47.228 165.42 47.228 166.108V166.744C47.228 167.432 47.02 167.984 46.604 168.4C46.196 168.816 45.6 169.024 44.816 169.024H43.316V172H42.272ZM44.816 164.824H43.316V168.052H44.816C45.248 168.052 45.576 167.936 45.8 167.704C46.032 167.472 46.148 167.152 46.148 166.744V166.108C46.148 165.708 46.032 165.396 45.8 165.172C45.576 164.94 45.248 164.824 44.816 164.824ZM51.6771 166.924C51.3171 166.924 50.9651 166.988 50.6211 167.116C50.2851 167.244 49.9251 167.488 49.5411 167.848V172H48.5571V166.06H49.4931V167.02C49.9011 166.62 50.2731 166.34 50.6091 166.18C50.9531 166.02 51.3091 165.94 51.6771 165.94V166.924ZM57.5473 168.664V169.384C57.5473 170.232 57.3273 170.9 56.8873 171.388C56.4553 171.876 55.8353 172.12 55.0273 172.12C54.2273 172.12 53.6073 171.876 53.1673 171.388C52.7273 170.9 52.5073 170.232 52.5073 169.384V168.664C52.5073 167.832 52.7233 167.172 53.1553 166.684C53.5953 166.188 54.2193 165.94 55.0273 165.94C55.8353 165.94 56.4553 166.188 56.8873 166.684C57.3273 167.172 57.5473 167.832 57.5473 168.664ZM56.5273 168.664C56.5273 168.096 56.3993 167.652 56.1433 167.332C55.8873 167.004 55.5153 166.84 55.0273 166.84C54.5473 166.84 54.1753 167.004 53.9113 167.332C53.6553 167.652 53.5273 168.096 53.5273 168.664V169.384C53.5273 169.976 53.6553 170.432 53.9113 170.752C54.1753 171.072 54.5473 171.232 55.0273 171.232C55.5153 171.232 55.8873 171.072 56.1433 170.752C56.3993 170.432 56.5273 169.976 56.5273 169.384V168.664ZM60.2595 164.608H59.1555V163.504H60.2595V164.608ZM57.9195 174.676V173.74C58.3435 173.74 58.6635 173.64 58.8795 173.44C59.1035 173.24 59.2155 172.852 59.2155 172.276V166.06H60.1995V172.276C60.1995 172.74 60.1315 173.152 59.9955 173.512C59.8595 173.872 59.6235 174.156 59.2875 174.364C58.9595 174.572 58.5035 174.676 57.9195 174.676ZM66.509 171.652C66.149 171.828 65.789 171.948 65.429 172.012C65.069 172.084 64.737 172.12 64.433 172.12C63.577 172.12 62.937 171.876 62.513 171.388C62.097 170.9 61.889 170.232 61.889 169.384V168.664C61.889 167.84 62.097 167.18 62.513 166.684C62.937 166.188 63.533 165.94 64.301 165.94C64.709 165.94 65.081 166.024 65.417 166.192C65.761 166.352 66.033 166.6 66.233 166.936C66.441 167.264 66.545 167.688 66.545 168.208C66.545 168.544 66.497 168.928 66.401 169.36H62.861V169.384C62.861 169.992 62.985 170.452 63.233 170.764C63.489 171.076 63.897 171.232 64.457 171.232C64.713 171.232 64.993 171.2 65.297 171.136C65.609 171.072 65.913 170.972 66.209 170.836L66.509 171.652ZM64.301 166.804C63.837 166.804 63.485 166.956 63.245 167.26C63.013 167.556 62.885 167.976 62.861 168.52H65.549C65.573 168.376 65.585 168.24 65.585 168.112C65.585 167.664 65.457 167.336 65.201 167.128C64.953 166.912 64.653 166.804 64.301 166.804ZM68.8239 168.676V169.384C68.8239 169.992 68.9359 170.452 69.1599 170.764C69.3839 171.068 69.7399 171.22 70.2279 171.22C70.7079 171.22 71.2239 171.096 71.7759 170.848L72.0759 171.676C71.4199 171.972 70.7839 172.12 70.1679 172.12C69.3999 172.12 68.8159 171.876 68.4159 171.388C68.0159 170.9 67.8159 170.232 67.8159 169.384V168.676C67.8159 167.828 68.0159 167.16 68.4159 166.672C68.8159 166.184 69.3999 165.94 70.1679 165.94C70.4559 165.94 70.7519 165.98 71.0559 166.06C71.3679 166.132 71.6799 166.236 71.9919 166.372L71.6919 167.212C71.4279 167.1 71.1719 167.012 70.9239 166.948C70.6839 166.884 70.4519 166.852 70.2279 166.852C69.7399 166.852 69.3839 167.008 69.1599 167.32C68.9359 167.624 68.8239 168.076 68.8239 168.676ZM76.6625 171.784C76.2145 172.008 75.7385 172.12 75.2345 172.12C74.8025 172.12 74.4625 172.032 74.2145 171.856C73.9745 171.68 73.8025 171.444 73.6985 171.148C73.6025 170.852 73.5545 170.524 73.5545 170.164V166.924H72.5225V166.06H73.5545V164.404H74.5385V166.06H76.4825V166.924H74.5385V170.128C74.5385 170.544 74.6065 170.832 74.7425 170.992C74.8865 171.144 75.1065 171.22 75.4025 171.22C75.5465 171.22 75.6945 171.204 75.8465 171.172C76.0065 171.132 76.1785 171.068 76.3625 170.98L76.6625 171.784ZM80.5464 172V163.84H83.0784C84.0144 163.84 84.7344 164.124 85.2384 164.692C85.7424 165.252 85.9944 166.028 85.9944 167.02V168.808C85.9944 169.808 85.7424 170.592 85.2384 171.16C84.7344 171.72 84.0144 172 83.0784 172H80.5464ZM83.0544 164.824H81.5904V171.028H83.0544C84.2944 171.028 84.9144 170.288 84.9144 168.808V167.02C84.9144 165.556 84.2944 164.824 83.0544 164.824ZM92.159 171.652C91.799 171.828 91.439 171.948 91.079 172.012C90.719 172.084 90.387 172.12 90.083 172.12C89.227 172.12 88.587 171.876 88.163 171.388C87.747 170.9 87.539 170.232 87.539 169.384V168.664C87.539 167.84 87.747 167.18 88.163 166.684C88.587 166.188 89.183 165.94 89.951 165.94C90.359 165.94 90.731 166.024 91.067 166.192C91.411 166.352 91.683 166.6 91.883 166.936C92.091 167.264 92.195 167.688 92.195 168.208C92.195 168.544 92.147 168.928 92.051 169.36H88.511V169.384C88.511 169.992 88.635 170.452 88.883 170.764C89.139 171.076 89.547 171.232 90.107 171.232C90.363 171.232 90.643 171.2 90.947 171.136C91.259 171.072 91.563 170.972 91.859 170.836L92.159 171.652ZM89.951 166.804C89.487 166.804 89.135 166.956 88.895 167.26C88.663 167.556 88.535 167.976 88.511 168.52H91.199C91.223 168.376 91.235 168.24 91.235 168.112C91.235 167.664 91.107 167.336 90.851 167.128C90.603 166.912 90.303 166.804 89.951 166.804ZM97.0419 171.784C96.5939 172.008 96.1179 172.12 95.6139 172.12C95.1819 172.12 94.8419 172.032 94.5939 171.856C94.3539 171.68 94.1819 171.444 94.0779 171.148C93.9819 170.852 93.9339 170.524 93.9339 170.164V166.924H92.9019V166.06H93.9339V164.404H94.9179V166.06H96.8619V166.924H94.9179V170.128C94.9179 170.544 94.9859 170.832 95.1219 170.992C95.2659 171.144 95.4859 171.22 95.7819 171.22C95.9259 171.22 96.0739 171.204 96.2259 171.172C96.3859 171.132 96.5579 171.068 96.7419 170.98L97.0419 171.784ZM102.56 172.06C102.192 172.06 101.896 171.976 101.672 171.808C101.456 171.64 101.304 171.432 101.216 171.184C100.824 171.528 100.468 171.772 100.148 171.916C99.8285 172.052 99.5085 172.12 99.1885 172.12C98.6685 172.12 98.2845 171.952 98.0365 171.616C97.7885 171.28 97.6645 170.868 97.6645 170.38C97.6645 170.052 97.7245 169.76 97.8445 169.504C97.9645 169.248 98.1685 169.048 98.4565 168.904C98.7445 168.752 99.1325 168.676 99.6205 168.676C99.8365 168.676 100.072 168.692 100.328 168.724C100.584 168.748 100.844 168.78 101.108 168.82V168.016C101.108 167.568 101.008 167.264 100.808 167.104C100.616 166.936 100.332 166.852 99.9565 166.852C99.4445 166.852 98.8725 166.992 98.2405 167.272L97.9285 166.456C98.2965 166.288 98.6485 166.16 98.9845 166.072C99.3205 165.984 99.6605 165.94 100.004 165.94C100.564 165.94 100.992 166.032 101.288 166.216C101.584 166.4 101.788 166.644 101.9 166.948C102.012 167.252 102.068 167.584 102.068 167.944V170.512C102.068 170.696 102.104 170.852 102.176 170.98C102.248 171.1 102.392 171.16 102.608 171.16H102.74V172.06H102.56ZM98.6365 170.368C98.6365 170.64 98.7005 170.86 98.8285 171.028C98.9565 171.196 99.1405 171.28 99.3805 171.28C99.5885 171.28 99.8285 171.22 100.1 171.1C100.372 170.972 100.708 170.72 101.108 170.344V169.588C100.564 169.5 100.084 169.456 99.6685 169.456C99.3005 169.456 99.0365 169.532 98.8765 169.684C98.7165 169.836 98.6365 170.064 98.6365 170.368ZM105.058 164.608H103.954V163.504H105.058V164.608ZM104.998 172H104.014V166.06H104.998V172ZM106.988 170.56V163.12H107.972V170.512C107.972 170.728 108.004 170.892 108.068 171.004C108.14 171.108 108.28 171.16 108.488 171.16H108.68V172.06H108.404C107.876 172.06 107.508 171.92 107.3 171.64C107.092 171.36 106.988 171 106.988 170.56ZM111.496 171.244C112.296 171.244 112.696 170.972 112.696 170.428C112.696 170.196 112.624 170.012 112.48 169.876C112.336 169.74 112.072 169.624 111.688 169.528L111.028 169.36C110.54 169.24 110.176 169.032 109.936 168.736C109.696 168.432 109.576 168.072 109.576 167.656C109.576 167.352 109.644 167.072 109.78 166.816C109.916 166.552 110.132 166.34 110.428 166.18C110.724 166.02 111.108 165.94 111.58 165.94C111.884 165.94 112.192 165.976 112.504 166.048C112.824 166.112 113.148 166.224 113.476 166.384L113.164 167.212C112.58 166.948 112.052 166.816 111.58 166.816C110.884 166.816 110.536 167.076 110.536 167.596C110.536 167.796 110.6 167.968 110.728 168.112C110.856 168.256 111.096 168.372 111.448 168.46L112.108 168.628C112.636 168.756 113.024 168.964 113.272 169.252C113.52 169.54 113.644 169.912 113.644 170.368C113.644 170.696 113.572 170.996 113.428 171.268C113.292 171.532 113.068 171.74 112.756 171.892C112.452 172.044 112.04 172.12 111.52 172.12C111.176 172.12 110.832 172.084 110.488 172.012C110.152 171.94 109.804 171.824 109.444 171.664L109.708 170.848C110.052 170.984 110.364 171.084 110.644 171.148C110.924 171.212 111.208 171.244 111.496 171.244ZM117.201 168.796V167.932H120.561V168.796H117.201ZM129.338 171.028V172H124.874V163.84H125.918V171.028H129.338ZM135.195 168.664V169.384C135.195 170.232 134.975 170.9 134.535 171.388C134.103 171.876 133.483 172.12 132.675 172.12C131.875 172.12 131.255 171.876 130.815 171.388C130.375 170.9 130.155 170.232 130.155 169.384V168.664C130.155 167.832 130.371 167.172 130.803 166.684C131.243 166.188 131.867 165.94 132.675 165.94C133.483 165.94 134.103 166.188 134.535 166.684C134.975 167.172 135.195 167.832 135.195 168.664ZM134.175 168.664C134.175 168.096 134.047 167.652 133.791 167.332C133.535 167.004 133.163 166.84 132.675 166.84C132.195 166.84 131.823 167.004 131.559 167.332C131.303 167.652 131.175 168.096 131.175 168.664V169.384C131.175 169.976 131.303 170.432 131.559 170.752C131.823 171.072 132.195 171.232 132.675 171.232C133.163 171.232 133.535 171.072 133.791 170.752C134.047 170.432 134.175 169.976 134.175 169.384V168.664ZM139.983 166.924C139.623 166.924 139.271 166.988 138.927 167.116C138.591 167.244 138.231 167.488 137.847 167.848V172H136.863V166.06H137.799V167.02C138.207 166.62 138.579 166.34 138.915 166.18C139.259 166.02 139.615 165.94 139.983 165.94V166.924ZM145.457 171.652C145.097 171.828 144.737 171.948 144.377 172.012C144.017 172.084 143.685 172.12 143.381 172.12C142.525 172.12 141.885 171.876 141.461 171.388C141.045 170.9 140.837 170.232 140.837 169.384V168.664C140.837 167.84 141.045 167.18 141.461 166.684C141.885 166.188 142.481 165.94 143.249 165.94C143.657 165.94 144.029 166.024 144.365 166.192C144.709 166.352 144.981 166.6 145.181 166.936C145.389 167.264 145.493 167.688 145.493 168.208C145.493 168.544 145.445 168.928 145.349 169.36H141.809V169.384C141.809 169.992 141.933 170.452 142.181 170.764C142.437 171.076 142.845 171.232 143.405 171.232C143.661 171.232 143.941 171.2 144.245 171.136C144.557 171.072 144.861 170.972 145.157 170.836L145.457 171.652ZM143.249 166.804C142.785 166.804 142.433 166.956 142.193 167.26C141.961 167.556 141.833 167.976 141.809 168.52H144.497C144.521 168.376 144.533 168.24 144.533 168.112C144.533 167.664 144.405 167.336 144.149 167.128C143.901 166.912 143.601 166.804 143.249 166.804ZM149.872 166.864C149.648 166.864 149.396 166.924 149.116 167.044C148.836 167.156 148.484 167.38 148.06 167.716V172H147.076V166.06H148.012V166.888C148.436 166.536 148.812 166.292 149.14 166.156C149.468 166.012 149.792 165.94 150.112 165.94C150.488 165.94 150.8 166.028 151.048 166.204C151.296 166.372 151.48 166.616 151.6 166.936C152.04 166.56 152.432 166.3 152.776 166.156C153.128 166.012 153.472 165.94 153.808 165.94C154.336 165.94 154.74 166.116 155.02 166.468C155.3 166.812 155.44 167.304 155.44 167.944V172H154.456V168.088C154.456 167.272 154.16 166.864 153.568 166.864C153.344 166.864 153.088 166.924 152.8 167.044C152.52 167.156 152.168 167.38 151.744 167.716C151.752 167.748 151.756 167.784 151.756 167.824C151.756 167.864 151.756 167.904 151.756 167.944V172H150.772V168.088C150.772 167.272 150.472 166.864 149.872 166.864ZM160.923 164.608H159.819V163.504H160.923V164.608ZM160.863 172H159.879V166.06H160.863V172ZM165.241 172.12C164.793 172.12 164.329 172.028 163.849 171.844V174.556H162.865V166.06H163.801V166.9C164.169 166.548 164.505 166.3 164.809 166.156C165.113 166.012 165.425 165.94 165.745 165.94C166.377 165.94 166.861 166.18 167.197 166.66C167.541 167.14 167.713 167.816 167.713 168.688V169.384C167.713 170.216 167.501 170.88 167.077 171.376C166.661 171.872 166.049 172.12 165.241 172.12ZM165.505 166.864C165.273 166.864 165.033 166.924 164.785 167.044C164.537 167.164 164.225 167.408 163.849 167.776V170.944C164.081 171.048 164.305 171.124 164.521 171.172C164.737 171.212 164.949 171.232 165.157 171.232C165.701 171.232 166.093 171.068 166.333 170.74C166.573 170.404 166.693 169.952 166.693 169.384V168.688C166.693 168.064 166.593 167.604 166.393 167.308C166.201 167.012 165.905 166.864 165.505 166.864ZM170.865 171.244C171.665 171.244 172.065 170.972 172.065 170.428C172.065 170.196 171.993 170.012 171.849 169.876C171.705 169.74 171.441 169.624 171.057 169.528L170.397 169.36C169.909 169.24 169.545 169.032 169.305 168.736C169.065 168.432 168.945 168.072 168.945 167.656C168.945 167.352 169.013 167.072 169.149 166.816C169.285 166.552 169.501 166.34 169.797 166.18C170.093 166.02 170.477 165.94 170.949 165.94C171.253 165.94 171.561 165.976 171.873 166.048C172.193 166.112 172.517 166.224 172.845 166.384L172.533 167.212C171.949 166.948 171.421 166.816 170.949 166.816C170.253 166.816 169.905 167.076 169.905 167.596C169.905 167.796 169.969 167.968 170.097 168.112C170.225 168.256 170.465 168.372 170.817 168.46L171.477 168.628C172.005 168.756 172.393 168.964 172.641 169.252C172.889 169.54 173.013 169.912 173.013 170.368C173.013 170.696 172.941 170.996 172.797 171.268C172.661 171.532 172.437 171.74 172.125 171.892C171.821 172.044 171.409 172.12 170.889 172.12C170.545 172.12 170.201 172.084 169.857 172.012C169.521 171.94 169.173 171.824 168.813 171.664L169.077 170.848C169.421 170.984 169.733 171.084 170.013 171.148C170.293 171.212 170.577 171.244 170.865 171.244ZM178.121 172V171.16C177.705 171.52 177.333 171.772 177.005 171.916C176.677 172.052 176.349 172.12 176.021 172.12C175.493 172.12 175.089 171.948 174.809 171.604C174.529 171.252 174.389 170.76 174.389 170.128V166.06H175.373V169.984C175.373 170.4 175.445 170.708 175.589 170.908C175.741 171.1 175.965 171.196 176.261 171.196C176.485 171.196 176.737 171.14 177.017 171.028C177.297 170.916 177.645 170.692 178.061 170.356V166.06H179.045V172H178.121ZM183.84 166.864C183.616 166.864 183.364 166.924 183.084 167.044C182.804 167.156 182.452 167.38 182.028 167.716V172H181.044V166.06H181.98V166.888C182.404 166.536 182.78 166.292 183.108 166.156C183.436 166.012 183.76 165.94 184.08 165.94C184.456 165.94 184.768 166.028 185.016 166.204C185.264 166.372 185.448 166.616 185.568 166.936C186.008 166.56 186.4 166.3 186.744 166.156C187.096 166.012 187.44 165.94 187.776 165.94C188.304 165.94 188.708 166.116 188.988 166.468C189.268 166.812 189.408 167.304 189.408 167.944V172H188.424V168.088C188.424 167.272 188.128 166.864 187.536 166.864C187.312 166.864 187.056 166.924 186.768 167.044C186.488 167.156 186.136 167.38 185.712 167.716C185.72 167.748 185.724 167.784 185.724 167.824C185.724 167.864 185.724 167.904 185.724 167.944V172H184.74V168.088C184.74 167.272 184.44 166.864 183.84 166.864ZM45.668 192V191.172C45.3 191.524 44.964 191.772 44.66 191.916C44.364 192.052 44.056 192.12 43.736 192.12C43.104 192.12 42.616 191.88 42.272 191.4C41.936 190.92 41.768 190.248 41.768 189.384V188.688C41.768 187.848 41.976 187.18 42.392 186.684C42.816 186.188 43.428 185.94 44.228 185.94C44.46 185.94 44.692 185.964 44.924 186.012C45.156 186.06 45.388 186.128 45.62 186.216V183.12H46.604V192H45.668ZM42.788 189.384C42.788 190.008 42.884 190.468 43.076 190.764C43.276 191.052 43.572 191.196 43.964 191.196C44.196 191.196 44.436 191.14 44.684 191.028C44.932 190.908 45.244 190.664 45.62 190.296V187.128C45.388 187.024 45.164 186.952 44.948 186.912C44.732 186.864 44.52 186.84 44.312 186.84C43.768 186.84 43.376 187.004 43.136 187.332C42.904 187.66 42.788 188.112 42.788 188.688V189.384ZM53.308 188.664V189.384C53.308 190.232 53.088 190.9 52.648 191.388C52.216 191.876 51.596 192.12 50.788 192.12C49.988 192.12 49.368 191.876 48.928 191.388C48.488 190.9 48.268 190.232 48.268 189.384V188.664C48.268 187.832 48.484 187.172 48.916 186.684C49.356 186.188 49.98 185.94 50.788 185.94C51.596 185.94 52.216 186.188 52.648 186.684C53.088 187.172 53.308 187.832 53.308 188.664ZM52.288 188.664C52.288 188.096 52.16 187.652 51.904 187.332C51.648 187.004 51.276 186.84 50.788 186.84C50.308 186.84 49.936 187.004 49.672 187.332C49.416 187.652 49.288 188.096 49.288 188.664V189.384C49.288 189.976 49.416 190.432 49.672 190.752C49.936 191.072 50.308 191.232 50.788 191.232C51.276 191.232 51.648 191.072 51.904 190.752C52.16 190.432 52.288 189.976 52.288 189.384V188.664ZM54.9642 190.56V183.12H55.9482V190.512C55.9482 190.728 55.9802 190.892 56.0442 191.004C56.1162 191.108 56.2562 191.16 56.4642 191.16H56.6562V192.06H56.3802C55.8522 192.06 55.4842 191.92 55.2762 191.64C55.0682 191.36 54.9642 191 54.9642 190.56ZM62.7242 188.664V189.384C62.7242 190.232 62.5042 190.9 62.0642 191.388C61.6322 191.876 61.0122 192.12 60.2042 192.12C59.4042 192.12 58.7842 191.876 58.3442 191.388C57.9042 190.9 57.6842 190.232 57.6842 189.384V188.664C57.6842 187.832 57.9002 187.172 58.3322 186.684C58.7722 186.188 59.3962 185.94 60.2042 185.94C61.0122 185.94 61.6322 186.188 62.0642 186.684C62.5042 187.172 62.7242 187.832 62.7242 188.664ZM61.7042 188.664C61.7042 188.096 61.5762 187.652 61.3202 187.332C61.0642 187.004 60.6922 186.84 60.2042 186.84C59.7242 186.84 59.3522 187.004 59.0882 187.332C58.8322 187.652 58.7042 188.096 58.7042 188.664V189.384C58.7042 189.976 58.8322 190.432 59.0882 190.752C59.3522 191.072 59.7242 191.232 60.2042 191.232C60.6922 191.232 61.0642 191.072 61.3202 190.752C61.5762 190.432 61.7042 189.976 61.7042 189.384V188.664ZM67.5124 186.924C67.1524 186.924 66.8004 186.988 66.4564 187.116C66.1204 187.244 65.7604 187.488 65.3764 187.848V192H64.3924V186.06H65.3284V187.02C65.7364 186.62 66.1084 186.34 66.4444 186.18C66.7884 186.02 67.1444 185.94 67.5124 185.94V186.924ZM72.6239 191.244C73.4239 191.244 73.8239 190.972 73.8239 190.428C73.8239 190.196 73.7519 190.012 73.6079 189.876C73.4639 189.74 73.1999 189.624 72.8159 189.528L72.1559 189.36C71.6679 189.24 71.3039 189.032 71.0639 188.736C70.8239 188.432 70.7039 188.072 70.7039 187.656C70.7039 187.352 70.7719 187.072 70.9079 186.816C71.0439 186.552 71.2599 186.34 71.5559 186.18C71.8519 186.02 72.2359 185.94 72.7079 185.94C73.0119 185.94 73.3199 185.976 73.6319 186.048C73.9519 186.112 74.2759 186.224 74.6039 186.384L74.2919 187.212C73.7079 186.948 73.1799 186.816 72.7079 186.816C72.0119 186.816 71.6639 187.076 71.6639 187.596C71.6639 187.796 71.7279 187.968 71.8559 188.112C71.9839 188.256 72.2239 188.372 72.5759 188.46L73.2359 188.628C73.7639 188.756 74.1519 188.964 74.3999 189.252C74.6479 189.54 74.7719 189.912 74.7719 190.368C74.7719 190.696 74.6999 190.996 74.5559 191.268C74.4199 191.532 74.1959 191.74 73.8839 191.892C73.5799 192.044 73.1679 192.12 72.6479 192.12C72.3039 192.12 71.9599 192.084 71.6159 192.012C71.2799 191.94 70.9319 191.824 70.5719 191.664L70.8359 190.848C71.1799 190.984 71.4919 191.084 71.7719 191.148C72.0519 191.212 72.3359 191.244 72.6239 191.244ZM77.2639 184.608H76.1599V183.504H77.2639V184.608ZM77.2039 192H76.2199V186.06H77.2039V192ZM82.4694 191.784C82.0214 192.008 81.5454 192.12 81.0414 192.12C80.6094 192.12 80.2694 192.032 80.0214 191.856C79.7814 191.68 79.6094 191.444 79.5054 191.148C79.4094 190.852 79.3614 190.524 79.3614 190.164V186.924H78.3294V186.06H79.3614V184.404H80.3454V186.06H82.2894V186.924H80.3454V190.128C80.3454 190.544 80.4134 190.832 80.5494 190.992C80.6934 191.144 80.9134 191.22 81.2094 191.22C81.3534 191.22 81.5014 191.204 81.6534 191.172C81.8134 191.132 81.9854 191.068 82.1694 190.98L82.4694 191.784ZM90.4812 192.06C90.1132 192.06 89.8172 191.976 89.5932 191.808C89.3772 191.64 89.2252 191.432 89.1372 191.184C88.7452 191.528 88.3892 191.772 88.0692 191.916C87.7492 192.052 87.4292 192.12 87.1092 192.12C86.5892 192.12 86.2052 191.952 85.9572 191.616C85.7092 191.28 85.5852 190.868 85.5852 190.38C85.5852 190.052 85.6452 189.76 85.7652 189.504C85.8852 189.248 86.0892 189.048 86.3772 188.904C86.6652 188.752 87.0532 188.676 87.5412 188.676C87.7572 188.676 87.9932 188.692 88.2492 188.724C88.5052 188.748 88.7652 188.78 89.0292 188.82V188.016C89.0292 187.568 88.9292 187.264 88.7292 187.104C88.5372 186.936 88.2532 186.852 87.8772 186.852C87.3652 186.852 86.7932 186.992 86.1612 187.272L85.8492 186.456C86.2172 186.288 86.5692 186.16 86.9052 186.072C87.2412 185.984 87.5812 185.94 87.9252 185.94C88.4852 185.94 88.9132 186.032 89.2092 186.216C89.5052 186.4 89.7092 186.644 89.8212 186.948C89.9332 187.252 89.9892 187.584 89.9892 187.944V190.512C89.9892 190.696 90.0252 190.852 90.0972 190.98C90.1692 191.1 90.3132 191.16 90.5292 191.16H90.6612V192.06H90.4812ZM86.5572 190.368C86.5572 190.64 86.6212 190.86 86.7492 191.028C86.8772 191.196 87.0612 191.28 87.3012 191.28C87.5092 191.28 87.7492 191.22 88.0212 191.1C88.2932 190.972 88.6292 190.72 89.0292 190.344V189.588C88.4852 189.5 88.0052 189.456 87.5892 189.456C87.2212 189.456 86.9572 189.532 86.7972 189.684C86.6372 189.836 86.5572 190.064 86.5572 190.368ZM94.7312 186.864C94.5072 186.864 94.2552 186.924 93.9752 187.044C93.6952 187.156 93.3432 187.38 92.9192 187.716V192H91.9352V186.06H92.8712V186.888C93.2952 186.536 93.6712 186.292 93.9992 186.156C94.3272 186.012 94.6512 185.94 94.9712 185.94C95.3472 185.94 95.6592 186.028 95.9072 186.204C96.1552 186.372 96.3392 186.616 96.4592 186.936C96.8992 186.56 97.2912 186.3 97.6352 186.156C97.9872 186.012 98.3312 185.94 98.6672 185.94C99.1952 185.94 99.5992 186.116 99.8792 186.468C100.159 186.812 100.299 187.304 100.299 187.944V192H99.3152V188.088C99.3152 187.272 99.0192 186.864 98.4272 186.864C98.2032 186.864 97.9472 186.924 97.6592 187.044C97.3792 187.156 97.0272 187.38 96.6032 187.716C96.6112 187.748 96.6152 187.784 96.6152 187.824C96.6152 187.864 96.6152 187.904 96.6152 187.944V192H95.6312V188.088C95.6312 187.272 95.3312 186.864 94.7312 186.864ZM106.553 191.652C106.193 191.828 105.833 191.948 105.473 192.012C105.113 192.084 104.781 192.12 104.477 192.12C103.621 192.12 102.981 191.876 102.557 191.388C102.141 190.9 101.933 190.232 101.933 189.384V188.664C101.933 187.84 102.141 187.18 102.557 186.684C102.981 186.188 103.577 185.94 104.345 185.94C104.753 185.94 105.125 186.024 105.461 186.192C105.805 186.352 106.077 186.6 106.277 186.936C106.485 187.264 106.589 187.688 106.589 188.208C106.589 188.544 106.541 188.928 106.445 189.36H102.905V189.384C102.905 189.992 103.029 190.452 103.277 190.764C103.533 191.076 103.941 191.232 104.501 191.232C104.757 191.232 105.037 191.2 105.341 191.136C105.653 191.072 105.957 190.972 106.253 190.836L106.553 191.652ZM104.345 186.804C103.881 186.804 103.529 186.956 103.289 187.26C103.057 187.556 102.929 187.976 102.905 188.52H105.593C105.617 188.376 105.629 188.24 105.629 188.112C105.629 187.664 105.501 187.336 105.245 187.128C104.997 186.912 104.697 186.804 104.345 186.804ZM111.436 191.784C110.988 192.008 110.512 192.12 110.008 192.12C109.576 192.12 109.236 192.032 108.988 191.856C108.748 191.68 108.576 191.444 108.472 191.148C108.376 190.852 108.328 190.524 108.328 190.164V186.924H107.296V186.06H108.328V184.404H109.312V186.06H111.256V186.924H109.312V190.128C109.312 190.544 109.38 190.832 109.516 190.992C109.66 191.144 109.88 191.22 110.176 191.22C110.32 191.22 110.468 191.204 110.62 191.172C110.78 191.132 110.952 191.068 111.136 190.98L111.436 191.784ZM113.198 190.908V191.136C113.198 191.72 113.126 192.276 112.982 192.804C112.838 193.332 112.578 193.896 112.202 194.496L111.554 194.136C111.754 193.752 111.898 193.4 111.986 193.08C112.082 192.768 112.142 192.44 112.166 192.096C112.198 191.76 112.214 191.364 112.214 190.908H113.198ZM117.988 188.676V189.384C117.988 189.992 118.1 190.452 118.324 190.764C118.548 191.068 118.904 191.22 119.392 191.22C119.872 191.22 120.388 191.096 120.94 190.848L121.24 191.676C120.584 191.972 119.948 192.12 119.332 192.12C118.564 192.12 117.98 191.876 117.58 191.388C117.18 190.9 116.98 190.232 116.98 189.384V188.676C116.98 187.828 117.18 187.16 117.58 186.672C117.98 186.184 118.564 185.94 119.332 185.94C119.62 185.94 119.916 185.98 120.22 186.06C120.532 186.132 120.844 186.236 121.156 186.372L120.856 187.212C120.592 187.1 120.336 187.012 120.088 186.948C119.848 186.884 119.616 186.852 119.392 186.852C118.904 186.852 118.548 187.008 118.324 187.32C118.1 187.624 117.988 188.076 117.988 188.676ZM127.243 188.664V189.384C127.243 190.232 127.023 190.9 126.583 191.388C126.151 191.876 125.531 192.12 124.723 192.12C123.923 192.12 123.303 191.876 122.863 191.388C122.423 190.9 122.203 190.232 122.203 189.384V188.664C122.203 187.832 122.419 187.172 122.851 186.684C123.291 186.188 123.915 185.94 124.723 185.94C125.531 185.94 126.151 186.188 126.583 186.684C127.023 187.172 127.243 187.832 127.243 188.664ZM126.223 188.664C126.223 188.096 126.095 187.652 125.839 187.332C125.583 187.004 125.211 186.84 124.723 186.84C124.243 186.84 123.871 187.004 123.607 187.332C123.351 187.652 123.223 188.096 123.223 188.664V189.384C123.223 189.976 123.351 190.432 123.607 190.752C123.871 191.072 124.243 191.232 124.723 191.232C125.211 191.232 125.583 191.072 125.839 190.752C126.095 190.432 126.223 189.976 126.223 189.384V188.664ZM131.768 186.864C131.544 186.864 131.28 186.92 130.976 187.032C130.68 187.144 130.32 187.372 129.896 187.716V192H128.912V186.06H129.848V186.888C130.272 186.528 130.656 186.28 131 186.144C131.352 186.008 131.688 185.94 132.008 185.94C132.56 185.94 132.98 186.116 133.268 186.468C133.564 186.812 133.712 187.304 133.712 187.944V192H132.728V188.088C132.728 187.272 132.408 186.864 131.768 186.864ZM137.099 191.244C137.899 191.244 138.299 190.972 138.299 190.428C138.299 190.196 138.227 190.012 138.083 189.876C137.939 189.74 137.675 189.624 137.291 189.528L136.631 189.36C136.143 189.24 135.779 189.032 135.539 188.736C135.299 188.432 135.179 188.072 135.179 187.656C135.179 187.352 135.247 187.072 135.383 186.816C135.519 186.552 135.735 186.34 136.031 186.18C136.327 186.02 136.711 185.94 137.183 185.94C137.487 185.94 137.795 185.976 138.107 186.048C138.427 186.112 138.751 186.224 139.079 186.384L138.767 187.212C138.183 186.948 137.655 186.816 137.183 186.816C136.487 186.816 136.139 187.076 136.139 187.596C136.139 187.796 136.203 187.968 136.331 188.112C136.459 188.256 136.699 188.372 137.051 188.46L137.711 188.628C138.239 188.756 138.627 188.964 138.875 189.252C139.123 189.54 139.247 189.912 139.247 190.368C139.247 190.696 139.175 190.996 139.031 191.268C138.895 191.532 138.671 191.74 138.359 191.892C138.055 192.044 137.643 192.12 137.123 192.12C136.779 192.12 136.435 192.084 136.091 192.012C135.755 191.94 135.407 191.824 135.047 191.664L135.311 190.848C135.655 190.984 135.967 191.084 136.247 191.148C136.527 191.212 136.811 191.244 137.099 191.244ZM145.003 191.652C144.643 191.828 144.283 191.948 143.923 192.012C143.563 192.084 143.231 192.12 142.927 192.12C142.071 192.12 141.431 191.876 141.007 191.388C140.591 190.9 140.383 190.232 140.383 189.384V188.664C140.383 187.84 140.591 187.18 141.007 186.684C141.431 186.188 142.027 185.94 142.795 185.94C143.203 185.94 143.575 186.024 143.911 186.192C144.255 186.352 144.527 186.6 144.727 186.936C144.935 187.264 145.039 187.688 145.039 188.208C145.039 188.544 144.991 188.928 144.895 189.36H141.355V189.384C141.355 189.992 141.479 190.452 141.727 190.764C141.983 191.076 142.391 191.232 142.951 191.232C143.207 191.232 143.487 191.2 143.791 191.136C144.103 191.072 144.407 190.972 144.703 190.836L145.003 191.652ZM142.795 186.804C142.331 186.804 141.979 186.956 141.739 187.26C141.507 187.556 141.379 187.976 141.355 188.52H144.043C144.067 188.376 144.079 188.24 144.079 188.112C144.079 187.664 143.951 187.336 143.695 187.128C143.447 186.912 143.147 186.804 142.795 186.804ZM147.318 188.676V189.384C147.318 189.992 147.43 190.452 147.654 190.764C147.878 191.068 148.234 191.22 148.722 191.22C149.202 191.22 149.718 191.096 150.27 190.848L150.57 191.676C149.914 191.972 149.278 192.12 148.662 192.12C147.894 192.12 147.31 191.876 146.91 191.388C146.51 190.9 146.31 190.232 146.31 189.384V188.676C146.31 187.828 146.51 187.16 146.91 186.672C147.31 186.184 147.894 185.94 148.662 185.94C148.95 185.94 149.246 185.98 149.55 186.06C149.862 186.132 150.174 186.236 150.486 186.372L150.186 187.212C149.922 187.1 149.666 187.012 149.418 186.948C149.178 186.884 148.946 186.852 148.722 186.852C148.234 186.852 147.878 187.008 147.654 187.32C147.43 187.624 147.318 188.076 147.318 188.676ZM155.157 191.784C154.709 192.008 154.233 192.12 153.729 192.12C153.297 192.12 152.957 192.032 152.709 191.856C152.469 191.68 152.297 191.444 152.193 191.148C152.097 190.852 152.049 190.524 152.049 190.164V186.924H151.017V186.06H152.049V184.404H153.033V186.06H154.977V186.924H153.033V190.128C153.033 190.544 153.101 190.832 153.237 190.992C153.381 191.144 153.601 191.22 153.897 191.22C154.041 191.22 154.189 191.204 154.341 191.172C154.501 191.132 154.673 191.068 154.857 190.98L155.157 191.784ZM160.639 191.652C160.279 191.828 159.919 191.948 159.559 192.012C159.199 192.084 158.867 192.12 158.563 192.12C157.707 192.12 157.067 191.876 156.643 191.388C156.227 190.9 156.019 190.232 156.019 189.384V188.664C156.019 187.84 156.227 187.18 156.643 186.684C157.067 186.188 157.663 185.94 158.431 185.94C158.839 185.94 159.211 186.024 159.547 186.192C159.891 186.352 160.163 186.6 160.363 186.936C160.571 187.264 160.675 187.688 160.675 188.208C160.675 188.544 160.627 188.928 160.531 189.36H156.991V189.384C156.991 189.992 157.115 190.452 157.363 190.764C157.619 191.076 158.027 191.232 158.587 191.232C158.843 191.232 159.123 191.2 159.427 191.136C159.739 191.072 160.043 190.972 160.339 190.836L160.639 191.652ZM158.431 186.804C157.967 186.804 157.615 186.956 157.375 187.26C157.143 187.556 157.015 187.976 156.991 188.52H159.679C159.703 188.376 159.715 188.24 159.715 188.112C159.715 187.664 159.587 187.336 159.331 187.128C159.083 186.912 158.783 186.804 158.431 186.804ZM165.522 191.784C165.074 192.008 164.598 192.12 164.094 192.12C163.662 192.12 163.322 192.032 163.074 191.856C162.834 191.68 162.662 191.444 162.558 191.148C162.462 190.852 162.414 190.524 162.414 190.164V186.924H161.382V186.06H162.414V184.404H163.398V186.06H165.342V186.924H163.398V190.128C163.398 190.544 163.466 190.832 163.602 190.992C163.746 191.144 163.966 191.22 164.262 191.22C164.406 191.22 164.554 191.204 164.706 191.172C164.866 191.132 165.038 191.068 165.222 190.98L165.522 191.784ZM170.357 192V191.16C169.941 191.52 169.569 191.772 169.241 191.916C168.913 192.052 168.585 192.12 168.257 192.12C167.729 192.12 167.325 191.948 167.045 191.604C166.765 191.252 166.625 190.76 166.625 190.128V186.06H167.609V189.984C167.609 190.4 167.681 190.708 167.825 190.908C167.977 191.1 168.201 191.196 168.497 191.196C168.721 191.196 168.973 191.14 169.253 191.028C169.533 190.916 169.881 190.692 170.297 190.356V186.06H171.281V192H170.357ZM176.4 186.924C176.04 186.924 175.688 186.988 175.344 187.116C175.008 187.244 174.648 187.488 174.264 187.848V192H173.28V186.06H174.216V187.02C174.624 186.62 174.996 186.34 175.332 186.18C175.676 186.02 176.032 185.94 176.4 185.94V186.924ZM46.4 212.06C46.032 212.06 45.736 211.976 45.512 211.808C45.296 211.64 45.144 211.432 45.056 211.184C44.664 211.528 44.308 211.772 43.988 211.916C43.668 212.052 43.348 212.12 43.028 212.12C42.508 212.12 42.124 211.952 41.876 211.616C41.628 211.28 41.504 210.868 41.504 210.38C41.504 210.052 41.564 209.76 41.684 209.504C41.804 209.248 42.008 209.048 42.296 208.904C42.584 208.752 42.972 208.676 43.46 208.676C43.676 208.676 43.912 208.692 44.168 208.724C44.424 208.748 44.684 208.78 44.948 208.82V208.016C44.948 207.568 44.848 207.264 44.648 207.104C44.456 206.936 44.172 206.852 43.796 206.852C43.284 206.852 42.712 206.992 42.08 207.272L41.768 206.456C42.136 206.288 42.488 206.16 42.824 206.072C43.16 205.984 43.5 205.94 43.844 205.94C44.404 205.94 44.832 206.032 45.128 206.216C45.424 206.4 45.628 206.644 45.74 206.948C45.852 207.252 45.908 207.584 45.908 207.944V210.512C45.908 210.696 45.944 210.852 46.016 210.98C46.088 211.1 46.232 211.16 46.448 211.16H46.58V212.06H46.4ZM42.476 210.368C42.476 210.64 42.54 210.86 42.668 211.028C42.796 211.196 42.98 211.28 43.22 211.28C43.428 211.28 43.668 211.22 43.94 211.1C44.212 210.972 44.548 210.72 44.948 210.344V209.588C44.404 209.5 43.924 209.456 43.508 209.456C43.14 209.456 42.876 209.532 42.716 209.684C42.556 209.836 42.476 210.064 42.476 210.368ZM51.466 212V211.172C51.098 211.524 50.762 211.772 50.458 211.916C50.162 212.052 49.854 212.12 49.534 212.12C48.902 212.12 48.414 211.88 48.07 211.4C47.734 210.92 47.566 210.248 47.566 209.384V208.688C47.566 207.848 47.774 207.18 48.19 206.684C48.614 206.188 49.226 205.94 50.026 205.94C50.258 205.94 50.49 205.964 50.722 206.012C50.954 206.06 51.186 206.128 51.418 206.216V203.12H52.402V212H51.466ZM48.586 209.384C48.586 210.008 48.682 210.468 48.874 210.764C49.074 211.052 49.37 211.196 49.762 211.196C49.994 211.196 50.234 211.14 50.482 211.028C50.73 210.908 51.042 210.664 51.418 210.296V207.128C51.186 207.024 50.962 206.952 50.746 206.912C50.53 206.864 50.318 206.84 50.11 206.84C49.566 206.84 49.174 207.004 48.934 207.332C48.702 207.66 48.586 208.112 48.586 208.688V209.384ZM55.4459 204.608H54.3419V203.504H55.4459V204.608ZM55.3859 212H54.4019V206.06H55.3859V212ZM59.7634 212.12C59.3154 212.12 58.8514 212.028 58.3714 211.844V214.556H57.3874V206.06H58.3234V206.9C58.6914 206.548 59.0274 206.3 59.3314 206.156C59.6354 206.012 59.9474 205.94 60.2674 205.94C60.8994 205.94 61.3834 206.18 61.7194 206.66C62.0634 207.14 62.2354 207.816 62.2354 208.688V209.384C62.2354 210.216 62.0234 210.88 61.5994 211.376C61.1834 211.872 60.5714 212.12 59.7634 212.12ZM60.0274 206.864C59.7954 206.864 59.5554 206.924 59.3074 207.044C59.0594 207.164 58.7474 207.408 58.3714 207.776V210.944C58.6034 211.048 58.8274 211.124 59.0434 211.172C59.2594 211.212 59.4714 211.232 59.6794 211.232C60.2234 211.232 60.6154 211.068 60.8554 210.74C61.0954 210.404 61.2154 209.952 61.2154 209.384V208.688C61.2154 208.064 61.1154 207.604 60.9154 207.308C60.7234 207.012 60.4274 206.864 60.0274 206.864ZM64.9794 204.608H63.8754V203.504H64.9794V204.608ZM64.9194 212H63.9354V206.06H64.9194V212ZM68.3728 211.244C69.1728 211.244 69.5728 210.972 69.5728 210.428C69.5728 210.196 69.5008 210.012 69.3568 209.876C69.2128 209.74 68.9488 209.624 68.5648 209.528L67.9048 209.36C67.4168 209.24 67.0528 209.032 66.8128 208.736C66.5728 208.432 66.4528 208.072 66.4528 207.656C66.4528 207.352 66.5208 207.072 66.6568 206.816C66.7928 206.552 67.0088 206.34 67.3048 206.18C67.6008 206.02 67.9848 205.94 68.4568 205.94C68.7608 205.94 69.0688 205.976 69.3808 206.048C69.7008 206.112 70.0248 206.224 70.3528 206.384L70.0408 207.212C69.4568 206.948 68.9288 206.816 68.4568 206.816C67.7608 206.816 67.4128 207.076 67.4128 207.596C67.4128 207.796 67.4768 207.968 67.6048 208.112C67.7328 208.256 67.9728 208.372 68.3248 208.46L68.9848 208.628C69.5128 208.756 69.9008 208.964 70.1488 209.252C70.3968 209.54 70.5208 209.912 70.5208 210.368C70.5208 210.696 70.4488 210.996 70.3048 211.268C70.1688 211.532 69.9448 211.74 69.6328 211.892C69.3288 212.044 68.9168 212.12 68.3968 212.12C68.0528 212.12 67.7088 212.084 67.3648 212.012C67.0288 211.94 66.6808 211.824 66.3208 211.664L66.5848 210.848C66.9288 210.984 67.2408 211.084 67.5208 211.148C67.8008 211.212 68.0848 211.244 68.3728 211.244ZM72.6648 208.676V209.384C72.6648 209.992 72.7768 210.452 73.0008 210.764C73.2248 211.068 73.5808 211.22 74.0688 211.22C74.5488 211.22 75.0648 211.096 75.6168 210.848L75.9168 211.676C75.2608 211.972 74.6248 212.12 74.0088 212.12C73.2408 212.12 72.6568 211.876 72.2568 211.388C71.8568 210.9 71.6568 210.232 71.6568 209.384V208.676C71.6568 207.828 71.8568 207.16 72.2568 206.672C72.6568 206.184 73.2408 205.94 74.0088 205.94C74.2968 205.94 74.5928 205.98 74.8968 206.06C75.2088 206.132 75.5208 206.236 75.8328 206.372L75.5328 207.212C75.2688 207.1 75.0128 207.012 74.7648 206.948C74.5248 206.884 74.2928 206.852 74.0688 206.852C73.5808 206.852 73.2248 207.008 73.0008 207.32C72.7768 207.624 72.6648 208.076 72.6648 208.676ZM78.2834 204.608H77.1794V203.504H78.2834V204.608ZM78.2234 212H77.2394V206.06H78.2234V212ZM83.0809 206.864C82.8569 206.864 82.5929 206.92 82.2889 207.032C81.9929 207.144 81.6329 207.372 81.2089 207.716V212H80.2249V206.06H81.1609V206.888C81.5849 206.528 81.9689 206.28 82.3129 206.144C82.6649 206.008 83.0009 205.94 83.3209 205.94C83.8729 205.94 84.2929 206.116 84.5809 206.468C84.8769 206.812 85.0249 207.304 85.0249 207.944V212H84.0409V208.088C84.0409 207.272 83.7209 206.864 83.0809 206.864ZM91.7124 212.744C91.7124 213.328 91.4724 213.796 90.9924 214.148C90.5204 214.5 89.8684 214.676 89.0364 214.676C88.6204 214.676 88.1844 214.62 87.7284 214.508C87.2804 214.396 86.8564 214.216 86.4564 213.968L86.7924 213.2C87.1924 213.424 87.5764 213.58 87.9444 213.668C88.3204 213.764 88.6844 213.812 89.0364 213.812C89.5804 213.812 90.0004 213.724 90.2964 213.548C90.5924 213.372 90.7404 213.136 90.7404 212.84C90.7404 212.624 90.6684 212.456 90.5244 212.336C90.3804 212.224 90.1484 212.168 89.8284 212.168H88.4484C87.9284 212.168 87.5524 212.044 87.3204 211.796C87.0884 211.548 86.9724 211.276 86.9724 210.98C86.9724 210.772 87.0204 210.568 87.1164 210.368C87.2124 210.16 87.3484 209.956 87.5244 209.756C87.2444 209.588 87.0204 209.36 86.8524 209.072C86.6844 208.776 86.6004 208.42 86.6004 208.004C86.6004 207.548 86.6964 207.168 86.8884 206.864C87.0884 206.56 87.3524 206.332 87.6804 206.18C88.0084 206.02 88.3764 205.94 88.7844 205.94H88.9884C89.2684 205.94 89.5244 205.98 89.7564 206.06H91.8924V206.936L90.5964 206.756C90.7644 206.9 90.9004 207.08 91.0044 207.296C91.1084 207.504 91.1604 207.76 91.1604 208.064C91.1604 208.496 91.0604 208.86 90.8604 209.156C90.6684 209.452 90.4084 209.68 90.0804 209.84C89.7524 209.992 89.3884 210.068 88.9884 210.068H88.7844C88.6804 210.068 88.5804 210.064 88.4844 210.056C88.3884 210.04 88.2924 210.024 88.1964 210.008C87.9644 210.264 87.8484 210.516 87.8484 210.764C87.8484 211.084 88.0724 211.244 88.5204 211.244H89.8644C90.4404 211.244 90.8924 211.372 91.2204 211.628C91.5484 211.884 91.7124 212.256 91.7124 212.744ZM88.9884 209.216C89.3004 209.216 89.5764 209.116 89.8164 208.916C90.0564 208.716 90.1764 208.412 90.1764 208.004C90.1764 207.604 90.0564 207.304 89.8164 207.104C89.5764 206.896 89.3004 206.792 88.9884 206.792H88.7844C88.4644 206.792 88.1844 206.896 87.9444 207.104C87.7044 207.304 87.5844 207.604 87.5844 208.004C87.5844 208.412 87.7044 208.716 87.9444 208.916C88.1844 209.116 88.4644 209.216 88.7844 209.216H88.9884ZM99.876 211.652C99.516 211.828 99.156 211.948 98.796 212.012C98.436 212.084 98.104 212.12 97.8 212.12C96.944 212.12 96.304 211.876 95.88 211.388C95.464 210.9 95.256 210.232 95.256 209.384V208.664C95.256 207.84 95.464 207.18 95.88 206.684C96.304 206.188 96.9 205.94 97.668 205.94C98.076 205.94 98.448 206.024 98.784 206.192C99.128 206.352 99.4 206.6 99.6 206.936C99.808 207.264 99.912 207.688 99.912 208.208C99.912 208.544 99.864 208.928 99.768 209.36H96.228V209.384C96.228 209.992 96.352 210.452 96.6 210.764C96.856 211.076 97.264 211.232 97.824 211.232C98.08 211.232 98.36 211.2 98.664 211.136C98.976 211.072 99.28 210.972 99.576 210.836L99.876 211.652ZM97.668 206.804C97.204 206.804 96.852 206.956 96.612 207.26C96.38 207.556 96.252 207.976 96.228 208.52H98.916C98.94 208.376 98.952 208.24 98.952 208.112C98.952 207.664 98.824 207.336 98.568 207.128C98.32 206.912 98.02 206.804 97.668 206.804ZM101.483 210.56V203.12H102.467V210.512C102.467 210.728 102.499 210.892 102.563 211.004C102.635 211.108 102.775 211.16 102.983 211.16H103.175V212.06H102.899C102.371 212.06 102.003 211.92 101.795 211.64C101.587 211.36 101.483 211 101.483 210.56ZM105.583 204.608H104.479V203.504H105.583V204.608ZM105.523 212H104.539V206.06H105.523V212ZM110.788 211.784C110.34 212.008 109.864 212.12 109.36 212.12C108.928 212.12 108.588 212.032 108.34 211.856C108.1 211.68 107.928 211.444 107.824 211.148C107.728 210.852 107.68 210.524 107.68 210.164V206.924H106.648V206.06H107.68V204.404H108.664V206.06H110.608V206.924H108.664V210.128C108.664 210.544 108.732 210.832 108.868 210.992C109.012 211.144 109.232 211.22 109.528 211.22C109.672 211.22 109.82 211.204 109.972 211.172C110.132 211.132 110.304 211.068 110.488 210.98L110.788 211.784ZM112.611 212H111.507V210.908H112.611V212Z" fill="#B3B3B3"/>
<path d="M40.156 248.548V247.84H45.832V248.548H43.384V256H42.604V248.548H40.156ZM50.6885 252.712V253.432C50.6885 254.28 50.4765 254.94 50.0525 255.412C49.6285 255.884 49.0325 256.12 48.2645 256.12C47.4885 256.12 46.8885 255.884 46.4645 255.412C46.0485 254.94 45.8405 254.28 45.8405 253.432V252.712C45.8405 251.896 46.0485 251.248 46.4645 250.768C46.8885 250.28 47.4885 250.036 48.2645 250.036C49.0405 250.036 49.6365 250.28 50.0525 250.768C50.4765 251.248 50.6885 251.896 50.6885 252.712ZM49.9325 252.712C49.9325 252.072 49.7885 251.576 49.5005 251.224C49.2125 250.872 48.8005 250.696 48.2645 250.696C47.7285 250.696 47.3165 250.872 47.0285 251.224C46.7405 251.576 46.5965 252.072 46.5965 252.712V253.432C46.5965 254.096 46.7405 254.6 47.0285 254.944C47.3165 255.288 47.7285 255.46 48.2645 255.46C48.8005 255.46 49.2125 255.288 49.5005 254.944C49.7885 254.6 49.9325 254.096 49.9325 253.432V252.712ZM57.049 252.712V253.432C57.049 254.28 56.837 254.94 56.413 255.412C55.989 255.884 55.393 256.12 54.625 256.12C53.849 256.12 53.249 255.884 52.825 255.412C52.409 254.94 52.201 254.28 52.201 253.432V252.712C52.201 251.896 52.409 251.248 52.825 250.768C53.249 250.28 53.849 250.036 54.625 250.036C55.401 250.036 55.997 250.28 56.413 250.768C56.837 251.248 57.049 251.896 57.049 252.712ZM56.293 252.712C56.293 252.072 56.149 251.576 55.861 251.224C55.573 250.872 55.161 250.696 54.625 250.696C54.089 250.696 53.677 250.872 53.389 251.224C53.101 251.576 52.957 252.072 52.957 252.712V253.432C52.957 254.096 53.101 254.6 53.389 254.944C53.677 255.288 54.089 255.46 54.625 255.46C55.161 255.46 55.573 255.288 55.861 254.944C56.149 254.6 56.293 254.096 56.293 253.432V252.712ZM58.8855 254.74V247.12H59.6055V254.656C59.6055 254.928 59.6415 255.12 59.7135 255.232C59.7935 255.344 59.9455 255.4 60.1695 255.4H60.3615V256.06H60.1335C59.7015 256.06 59.3855 255.952 59.1855 255.736C58.9855 255.52 58.8855 255.188 58.8855 254.74ZM68.1534 256V255.16C67.7054 255.536 67.3094 255.792 66.9654 255.928C66.6294 256.056 66.3094 256.12 66.0054 256.12C65.4934 256.12 65.1014 255.956 64.8294 255.628C64.5574 255.292 64.4214 254.82 64.4214 254.212V250.156H65.1414V254.08C65.1414 254.544 65.2214 254.888 65.3814 255.112C65.5414 255.328 65.7894 255.436 66.1254 255.436C66.3654 255.436 66.6374 255.376 66.9414 255.256C67.2534 255.128 67.6454 254.872 68.1174 254.488V250.156H68.8374V256H68.1534ZM72.2662 255.46C72.7542 255.46 73.0942 255.38 73.2862 255.22C73.4862 255.052 73.5862 254.812 73.5862 254.5C73.5862 254.236 73.5062 254.02 73.3462 253.852C73.1942 253.684 72.9062 253.548 72.4822 253.444L71.8342 253.288C71.3782 253.176 71.0302 252.98 70.7902 252.7C70.5582 252.412 70.4422 252.064 70.4422 251.656C70.4422 251.376 70.5022 251.116 70.6222 250.876C70.7502 250.628 70.9502 250.428 71.2222 250.276C71.5022 250.116 71.8702 250.036 72.3262 250.036C72.6222 250.036 72.9222 250.072 73.2262 250.144C73.5302 250.208 73.8302 250.312 74.1262 250.456L73.8862 251.068C73.3262 250.82 72.8062 250.696 72.3262 250.696C71.9502 250.696 71.6582 250.772 71.4502 250.924C71.2502 251.076 71.1502 251.304 71.1502 251.608C71.1502 251.84 71.2222 252.048 71.3662 252.232C71.5182 252.416 71.7942 252.556 72.1942 252.652L72.8542 252.808C73.8142 253.032 74.2942 253.584 74.2942 254.464C74.2942 254.768 74.2342 255.048 74.1142 255.304C73.9942 255.552 73.7902 255.752 73.5022 255.904C73.2142 256.048 72.8222 256.12 72.3262 256.12C71.9902 256.12 71.6582 256.084 71.3302 256.012C71.0022 255.94 70.6662 255.828 70.3222 255.676L70.5142 255.064C70.8342 255.192 71.1262 255.292 71.3902 255.364C71.6622 255.428 71.9542 255.46 72.2662 255.46ZM79.9587 255.652C79.6307 255.82 79.2867 255.94 78.9267 256.012C78.5747 256.084 78.2547 256.12 77.9667 256.12C77.1507 256.12 76.5427 255.884 76.1427 255.412C75.7507 254.94 75.5547 254.28 75.5547 253.432V252.712C75.5547 251.904 75.7547 251.256 76.1547 250.768C76.5547 250.28 77.1307 250.036 77.8827 250.036C78.4747 250.036 78.9707 250.212 79.3707 250.564C79.7787 250.916 79.9827 251.448 79.9827 252.16C79.9827 252.488 79.9347 252.864 79.8387 253.288H76.2867V253.432C76.2867 254.088 76.4187 254.592 76.6827 254.944C76.9467 255.288 77.3747 255.46 77.9667 255.46C78.2067 255.46 78.4827 255.428 78.7947 255.364C79.1147 255.3 79.4227 255.2 79.7187 255.064L79.9587 255.652ZM77.8827 250.696C77.3467 250.696 76.9467 250.872 76.6827 251.224C76.4187 251.568 76.2867 252.044 76.2867 252.652H79.2267C79.2427 252.548 79.2547 252.452 79.2627 252.364C79.2707 252.268 79.2747 252.18 79.2747 252.1C79.2747 251.604 79.1347 251.248 78.8547 251.032C78.5827 250.808 78.2587 250.696 77.8827 250.696ZM85.3007 256V255.172C84.9407 255.5 84.5967 255.74 84.2687 255.892C83.9407 256.044 83.6047 256.12 83.2607 256.12C82.6527 256.12 82.1847 255.884 81.8567 255.412C81.5287 254.94 81.3647 254.28 81.3647 253.432V252.712C81.3647 251.896 81.5687 251.248 81.9767 250.768C82.3847 250.28 82.9807 250.036 83.7647 250.036C84.0207 250.036 84.2727 250.064 84.5207 250.12C84.7687 250.168 85.0167 250.24 85.2647 250.336V247.12H85.9847V256H85.3007ZM82.1207 253.432C82.1207 254.12 82.2247 254.628 82.4327 254.956C82.6407 255.276 82.9647 255.436 83.4047 255.436C83.6607 255.436 83.9247 255.372 84.1967 255.244C84.4767 255.116 84.8327 254.856 85.2647 254.464V251.032C84.7687 250.808 84.2807 250.696 83.8007 250.696C83.2007 250.696 82.7687 250.876 82.5047 251.236C82.2487 251.596 82.1207 252.088 82.1207 252.712V253.432ZM93.5597 250.72C93.3117 250.72 93.0277 250.78 92.7077 250.9C92.3877 251.02 91.9877 251.276 91.5077 251.668V256H90.7877V247.12H91.5077V250.96C91.9557 250.584 92.3517 250.336 92.6957 250.216C93.0477 250.096 93.3757 250.036 93.6797 250.036C94.2157 250.036 94.6237 250.2 94.9037 250.528C95.1837 250.856 95.3237 251.328 95.3237 251.944V256H94.6037V252.076C94.6037 251.604 94.5157 251.26 94.3397 251.044C94.1717 250.828 93.9117 250.72 93.5597 250.72ZM101.533 255.652C101.205 255.82 100.861 255.94 100.501 256.012C100.149 256.084 99.8294 256.12 99.5414 256.12C98.7254 256.12 98.1174 255.884 97.7174 255.412C97.3254 254.94 97.1294 254.28 97.1294 253.432V252.712C97.1294 251.904 97.3294 251.256 97.7294 250.768C98.1294 250.28 98.7054 250.036 99.4574 250.036C100.049 250.036 100.545 250.212 100.945 250.564C101.353 250.916 101.557 251.448 101.557 252.16C101.557 252.488 101.509 252.864 101.413 253.288H97.8614V253.432C97.8614 254.088 97.9934 254.592 98.2574 254.944C98.5214 255.288 98.9494 255.46 99.5414 255.46C99.7814 255.46 100.057 255.428 100.369 255.364C100.689 255.3 100.997 255.2 101.293 255.064L101.533 255.652ZM99.4574 250.696C98.9214 250.696 98.5214 250.872 98.2574 251.224C97.9934 251.568 97.8614 252.044 97.8614 252.652H100.801C100.817 252.548 100.829 252.452 100.837 252.364C100.845 252.268 100.849 252.18 100.849 252.1C100.849 251.604 100.709 251.248 100.429 251.032C100.157 250.808 99.8334 250.696 99.4574 250.696ZM106.131 250.756C105.795 250.756 105.459 250.82 105.123 250.948C104.787 251.076 104.395 251.36 103.947 251.8V256H103.227V250.156H103.911V251.128C104.319 250.704 104.699 250.416 105.051 250.264C105.403 250.112 105.763 250.036 106.131 250.036V250.756ZM111.454 255.652C111.126 255.82 110.782 255.94 110.422 256.012C110.07 256.084 109.75 256.12 109.462 256.12C108.646 256.12 108.038 255.884 107.638 255.412C107.246 254.94 107.05 254.28 107.05 253.432V252.712C107.05 251.904 107.25 251.256 107.65 250.768C108.05 250.28 108.626 250.036 109.378 250.036C109.97 250.036 110.466 250.212 110.866 250.564C111.274 250.916 111.478 251.448 111.478 252.16C111.478 252.488 111.43 252.864 111.334 253.288H107.782V253.432C107.782 254.088 107.914 254.592 108.178 254.944C108.442 255.288 108.87 255.46 109.462 255.46C109.702 255.46 109.978 255.428 110.29 255.364C110.61 255.3 110.918 255.2 111.214 255.064L111.454 255.652ZM109.378 250.696C108.842 250.696 108.442 250.872 108.178 251.224C107.914 251.568 107.782 252.044 107.782 252.652H110.722C110.738 252.548 110.75 252.452 110.758 252.364C110.766 252.268 110.77 252.18 110.77 252.1C110.77 251.604 110.63 251.248 110.35 251.032C110.078 250.808 109.754 250.696 109.378 250.696Z" fill="#B3B3B3"/>
</svg>
