<svg width="13" height="14" viewBox="0 0 13 14" fill="none" xmlns="http://www.w3.org/2000/svg">
<g clip-path="url(#clip0_147_156)">
<path d="M13 7C13 3.40977 10.0902 0.5 6.5 0.5C2.90977 0.5 0 3.40977 0 7C0 10.2449 2.37656 12.9338 5.48438 13.4213V8.87891H3.83398V7H5.48438V5.56797C5.48438 3.93916 6.4543 3.03906 7.93965 3.03906C8.65059 3.03906 9.39453 3.16602 9.39453 3.16602V4.76563H8.57441C7.76699 4.76563 7.51562 5.26709 7.51562 5.78125V7H9.31836L9.03018 8.87891H7.51562V13.4213C10.6234 12.9338 13 10.2449 13 7Z" fill="#09CD92"/>
</g>
<defs>
<clipPath id="clip0_147_156">
<rect width="13" height="13" fill="white" transform="translate(0 0.5)"/>
</clipPath>
</defs>
</svg>
